{
    "asset" : {
        "generator" : "Khronos glTF Blender I/O v1.8.19",
        "version" : "2.0"
    },
    "scene" : 0,
    "scenes" : [
        {
            "name" : "Scene",
            "nodes" : [
                0,
                1
            ]
        }
    ],
    "nodes" : [
        {
            "mesh" : 0,
            "name" : "Sphere.001",
            "translation" : [
                0,
                1.4304035902023315,
                0
            ]
        },
        {
            "mesh" : 1,
            "name" : "Sphere.002",
            "scale" : [
                2.1723358631134033,
                2.1723358631134033,
                2.1723358631134033
            ],
            "translation" : [
                0,
                -1.9997875690460205,
                0.04166223853826523
            ]
        }
    ],
    "materials" : [
        {
            "doubleSided" : true,
            "name" : "Material.003",
            "pbrMetallicRoughness" : {
                "baseColorFactor" : [
                    0.004024711437523365,
                    0.0036765034310519695,
                    0.006512090098112822,
                    1
                ],
                "metallicFactor" : 0,
                "roughnessFactor" : 0.3503740429878235
            }
        },
        {
            "doubleSided" : true,
            "name" : "Material.002",
            "pbrMetallicRoughness" : {
                "baseColorFactor" : [
                    0.004024711437523365,
                    0.0036765034310519695,
                    0.006512090098112822,
                    1
                ],
                "metallicFactor" : 0,
                "roughnessFactor" : 0.3503740429878235
            }
        }
    ],
    "meshes" : [
        {
            "name" : "Sphere.001",
            "primitives" : [
                {
                    "attributes" : {
                        "POSITION" : 0,
                        "NORMAL" : 1,
                        "TEXCOORD_0" : 2
                    },
                    "indices" : 3,
                    "material" : 0
                }
            ]
        },
        {
            "name" : "Sphere.002",
            "primitives" : [
                {
                    "attributes" : {
                        "POSITION" : 4,
                        "NORMAL" : 5,
                        "TEXCOORD_0" : 6
                    },
                    "indices" : 7,
                    "material" : 1
                }
            ]
        }
    ],
    "accessors" : [
        {
            "bufferView" : 0,
            "componentType" : 5126,
            "count" : 967,
            "max" : [
                0.9999997019767761,
                1,
                0.9999992847442627
            ],
            "min" : [
                -0.9999988675117493,
                -1,
                -0.9999983906745911
            ],
            "type" : "VEC3"
        },
        {
            "bufferView" : 1,
            "componentType" : 5126,
            "count" : 967,
            "type" : "VEC3"
        },
        {
            "bufferView" : 2,
            "componentType" : 5126,
            "count" : 967,
            "type" : "VEC2"
        },
        {
            "bufferView" : 3,
            "componentType" : 5123,
            "count" : 5040,
            "type" : "SCALAR"
        },
        {
            "bufferView" : 4,
            "componentType" : 5126,
            "count" : 625,
            "max" : [
                0.9999997019767761,
                1,
                0.9999992847442627
            ],
            "min" : [
                -0.9999988675117493,
                -4.371138828673793e-08,
                -0.9999983906745911
            ],
            "type" : "VEC3"
        },
        {
            "bufferView" : 5,
            "componentType" : 5126,
            "count" : 625,
            "type" : "VEC3"
        },
        {
            "bufferView" : 6,
            "componentType" : 5126,
            "count" : 625,
            "type" : "VEC2"
        },
        {
            "bufferView" : 7,
            "componentType" : 5123,
            "count" : 2688,
            "type" : "SCALAR"
        }
    ],
    "bufferViews" : [
        {
            "buffer" : 0,
            "byteLength" : 11604,
            "byteOffset" : 0
        },
        {
            "buffer" : 0,
            "byteLength" : 11604,
            "byteOffset" : 11604
        },
        {
            "buffer" : 0,
            "byteLength" : 7736,
            "byteOffset" : 23208
        },
        {
            "buffer" : 0,
            "byteLength" : 10080,
            "byteOffset" : 30944
        },
        {
            "buffer" : 0,
            "byteLength" : 7500,
            "byteOffset" : 41024
        },
        {
            "buffer" : 0,
            "byteLength" : 7500,
            "byteOffset" : 48524
        },
        {
            "buffer" : 0,
            "byteLength" : 5000,
            "byteOffset" : 56024
        },
        {
            "buffer" : 0,
            "byteLength" : 5376,
            "byteOffset" : 61024
        }
    ],
    "buffers" : [
        {
            "byteLength" : 66400,
            "uri" : "data:application/octet-stream;base64,"
        }
    ]
}
