{
    "asset" : {
        "generator" : "Khronos glTF Blender I/O v1.8.19",
        "version" : "2.0"
    },
    "scene" : 0,
    "scenes" : [
        {
            "name" : "Scene",
            "nodes" : [
                0,
                1,
                2
            ]
        }
    ],
    "nodes" : [
        {
            "mesh" : 0,
            "name" : "Cube",
            "scale" : [
                0.757861316204071,
                0.757861316204071,
                0.757861316204071
            ],
            "translation" : [
                -1.443239450454712,
                1.3307843208312988,
                1.5195157527923584
            ]
        },
        {
            "mesh" : 1,
            "name" : "Cube.001",
            "scale" : [
                0.757861316204071,
                0.757861316204071,
                0.757861316204071
            ],
            "translation" : [
                -1.443239450454712,
                -0.14296221733093262,
                1.5195157527923584
            ]
        },
        {
            "mesh" : 2,
            "name" : "Cube.002",
            "scale" : [
                0.757861316204071,
                0.757861316204071,
                0.757861316204071
            ],
            "translation" : [
                -1.443239450454712,
                -1.616708755493164,
                1.5195157527923584
            ]
        }
    ],
    "materials" : [
        {
            "doubleSided" : true,
            "name" : "Material.006",
            "pbrMetallicRoughness" : {
                "baseColorFactor" : [
                    0.004024711437523365,
                    0.0036765034310519695,
                    0.006512090098112822,
                    1
                ],
                "metallicFactor" : 0,
                "roughnessFactor" : 0.3503740429878235
            }
        },
        {
            "doubleSided" : true,
            "name" : "Material.005",
            "pbrMetallicRoughness" : {
                "baseColorFactor" : [
                    0.004024711437523365,
                    0.0036765034310519695,
                    0.006512090098112822,
                    1
                ],
                "metallicFactor" : 0,
                "roughnessFactor" : 0.3503740429878235
            }
        },
        {
            "doubleSided" : true,
            "name" : "Material.004",
            "pbrMetallicRoughness" : {
                "baseColorFactor" : [
                    0.004024711437523365,
                    0.0036765034310519695,
                    0.006512090098112822,
                    1
                ],
                "metallicFactor" : 0,
                "roughnessFactor" : 0.3503740429878235
            }
        }
    ],
    "meshes" : [
        {
            "name" : "Cube",
            "primitives" : [
                {
                    "attributes" : {
                        "POSITION" : 0,
                        "NORMAL" : 1,
                        "TEXCOORD_0" : 2
                    },
                    "indices" : 3,
                    "material" : 0
                }
            ]
        },
        {
            "name" : "Cube.001",
            "primitives" : [
                {
                    "attributes" : {
                        "POSITION" : 4,
                        "NORMAL" : 5,
                        "TEXCOORD_0" : 6
                    },
                    "indices" : 3,
                    "material" : 1
                }
            ]
        },
        {
            "name" : "Cube.002",
            "primitives" : [
                {
                    "attributes" : {
                        "POSITION" : 7,
                        "NORMAL" : 8,
                        "TEXCOORD_0" : 9
                    },
                    "indices" : 3,
                    "material" : 2
                }
            ]
        }
    ],
    "accessors" : [
        {
            "bufferView" : 0,
            "componentType" : 5126,
            "count" : 600,
            "max" : [
                4.823478698730469,
                1,
                1
            ],
            "min" : [
                -1,
                -0.22156459093093872,
                -5.16117000579834
            ],
            "type" : "VEC3"
        },
        {
            "bufferView" : 1,
            "componentType" : 5126,
            "count" : 600,
            "type" : "VEC3"
        },
        {
            "bufferView" : 2,
            "componentType" : 5126,
            "count" : 600,
            "type" : "VEC2"
        },
        {
            "bufferView" : 3,
            "componentType" : 5123,
            "count" : 900,
            "type" : "SCALAR"
        },
        {
            "bufferView" : 4,
            "componentType" : 5126,
            "count" : 600,
            "max" : [
                4.823478698730469,
                1,
                1
            ],
            "min" : [
                -1,
                -0.22156459093093872,
                -5.16117000579834
            ],
            "type" : "VEC3"
        },
        {
            "bufferView" : 5,
            "componentType" : 5126,
            "count" : 600,
            "type" : "VEC3"
        },
        {
            "bufferView" : 6,
            "componentType" : 5126,
            "count" : 600,
            "type" : "VEC2"
        },
        {
            "bufferView" : 7,
            "componentType" : 5126,
            "count" : 600,
            "max" : [
                4.823478698730469,
                1,
                1
            ],
            "min" : [
                -1,
                -0.22156459093093872,
                -5.16117000579834
            ],
            "type" : "VEC3"
        },
        {
            "bufferView" : 8,
            "componentType" : 5126,
            "count" : 600,
            "type" : "VEC3"
        },
        {
            "bufferView" : 9,
            "componentType" : 5126,
            "count" : 600,
            "type" : "VEC2"
        }
    ],
    "bufferViews" : [
        {
            "buffer" : 0,
            "byteLength" : 7200,
            "byteOffset" : 0
        },
        {
            "buffer" : 0,
            "byteLength" : 7200,
            "byteOffset" : 7200
        },
        {
            "buffer" : 0,
            "byteLength" : 4800,
            "byteOffset" : 14400
        },
        {
            "buffer" : 0,
            "byteLength" : 1800,
            "byteOffset" : 19200
        },
        {
            "buffer" : 0,
            "byteLength" : 7200,
            "byteOffset" : 21000
        },
        {
            "buffer" : 0,
            "byteLength" : 7200,
            "byteOffset" : 28200
        },
        {
            "buffer" : 0,
            "byteLength" : 4800,
            "byteOffset" : 35400
        },
        {
            "buffer" : 0,
            "byteLength" : 7200,
            "byteOffset" : 40200
        },
        {
            "buffer" : 0,
            "byteLength" : 7200,
            "byteOffset" : 47400
        },
        {
            "buffer" : 0,
            "byteLength" : 4800,
            "byteOffset" : 54600
        }
    ],
    "buffers" : [
        {
            "byteLength" : 59400,
            "uri" : "data:application/octet-stream;base64,"
        }
    ]
}
