<svg width="18" height="19" viewBox="0 0 18 19" fill="none" xmlns="http://www.w3.org/2000/svg">
<g clip-path="url(#clip0_144_548)">
<path d="M6.71426 0.499845C6.9693 0.593776 7.2436 0.65671 7.47516 0.79197C8.10877 1.16253 8.44977 1.73973 8.46151 2.46958C8.48171 3.74657 8.47607 5.02356 8.4648 6.30055C8.45728 7.11353 7.6992 7.60667 6.96836 7.29247C6.62266 7.14359 6.42962 6.87353 6.36339 6.50814C6.35024 6.43347 6.34649 6.35691 6.33662 6.2813C6.29764 5.98495 6.07313 5.79192 5.78521 5.80507C5.51279 5.81822 5.27371 6.03708 5.29532 6.32169C5.31692 6.6063 5.36107 6.92238 5.47662 7.1882C5.95194 8.28156 7.27037 8.74605 8.34456 8.22473C8.37556 8.2097 8.40702 8.19702 8.45446 8.17777V10.8299C8.41548 10.8144 8.37461 10.8017 8.3361 10.7829C6.97399 10.1254 5.37704 11.0647 5.28921 12.5756C5.26854 12.9297 5.46206 13.1815 5.77628 13.2101C6.07547 13.2374 6.30985 13.0223 6.33991 12.67C6.38218 12.1943 6.5912 11.842 7.05713 11.6866C7.76589 11.4494 8.45118 11.9266 8.46104 12.6879C8.47795 13.9644 8.4803 15.2418 8.46104 16.5184C8.44648 17.4229 7.92136 18.1246 7.12195 18.3904C6.30234 18.6633 5.40147 18.4144 4.8787 17.7686C4.57904 17.3985 4.44846 16.9655 4.43672 16.5005C4.42638 16.0929 4.74108 15.7866 5.17085 15.7585C5.47755 15.7378 5.68751 15.5368 5.7016 15.255C5.71287 14.9831 5.52406 14.7327 5.25774 14.713C5.08272 14.7004 4.9068 14.7163 4.73685 14.76C4.14927 14.9136 3.73782 15.2794 3.50814 15.8425C3.47432 15.9266 3.44285 15.9712 3.33764 15.9736C3.06322 15.9813 2.79011 15.9329 2.535 15.8315C2.27989 15.7301 2.04813 15.5778 1.85388 15.3838C1.65962 15.1899 1.50696 14.9583 1.4052 14.7034C1.30345 14.4484 1.25475 14.1754 1.26207 13.901C1.27412 13.5699 1.4056 13.2543 1.63224 13.0126C1.85887 12.7708 2.16533 12.6193 2.49501 12.5859C2.5711 12.5794 2.64719 12.5747 2.72234 12.562C2.84842 12.5443 2.96333 12.4801 3.04443 12.382C3.12553 12.2838 3.16696 12.1589 3.16057 12.0318C3.16094 11.904 3.11254 11.781 3.02524 11.6878C2.93794 11.5946 2.81835 11.5382 2.69088 11.5302C2.40906 11.5114 2.12724 11.525 1.84825 11.5048C0.752456 11.424 -0.0173682 10.5683 -0.000459286 9.45992C0.0159799 8.38535 0.823381 7.54984 1.9032 7.49723C2.131 7.48596 2.35974 7.49395 2.58848 7.49113C2.92572 7.4869 3.15211 7.2826 3.1601 6.97686C3.16808 6.67111 2.95391 6.45554 2.6162 6.43675C1.60213 6.3804 1.02535 5.47678 1.34803 4.45246C1.48309 4.03374 1.74954 3.66971 2.10786 3.41438C2.46617 3.15905 2.89727 3.02603 3.33717 3.03504C3.44426 3.03786 3.4715 3.0914 3.50626 3.17171C3.80874 3.86915 4.33762 4.25474 5.09946 4.3064C5.42542 4.32847 5.66919 4.1331 5.6969 3.84332C5.72649 3.53476 5.53533 3.31026 5.1995 3.2586C4.60112 3.16748 4.34044 2.80303 4.448 2.20751C4.52394 1.79611 4.72053 1.41659 5.01275 1.1172C5.30497 0.817805 5.67963 0.612068 6.0891 0.526145C6.11122 0.518966 6.13261 0.509687 6.15297 0.498436L6.71426 0.499845Z" fill="#FEC532"/>
<path d="M18.0001 11.9957C17.9866 12.0263 17.9751 12.0577 17.9658 12.0897C17.8206 12.7989 17.2612 13.3221 16.5638 13.4C15.7963 13.486 15.1486 13.1384 14.8433 12.4607C14.7855 12.333 14.7221 12.2879 14.584 12.2926C14.2623 12.3029 13.9396 12.2926 13.6178 12.2973C13.5155 12.3021 13.4133 12.2843 13.3186 12.2451C13.2238 12.206 13.1389 12.1465 13.0697 12.0709C12.8104 11.8004 12.546 11.5341 12.2712 11.2781C12.1955 11.2116 12.0995 11.1727 11.9988 11.1677C11.2473 11.1588 10.4996 11.1626 9.74993 11.1626H9.53247V10.1073H9.69921C10.5545 10.1073 11.4098 10.1101 12.2647 10.1049C12.3727 10.1006 12.4805 10.12 12.5803 10.1617C12.68 10.2034 12.7695 10.2664 12.8424 10.3463C13.0965 10.614 13.359 10.8756 13.6272 11.1269C13.7037 11.1922 13.7993 11.2311 13.8997 11.2377C14.1453 11.2511 14.3915 11.2511 14.6371 11.2377C14.6707 11.2339 14.703 11.2227 14.7317 11.2048C14.7604 11.1869 14.7847 11.1629 14.8029 11.1344C15.1439 10.4266 15.7864 10.0415 16.5088 10.1223C17.2636 10.2059 17.7939 10.7037 17.9728 11.4956C17.9791 11.5114 17.9878 11.5261 17.9987 11.5392L18.0001 11.9957Z" fill="#FEC532"/>
<path d="M18 7.46076C17.9831 7.52134 17.9643 7.58146 17.9493 7.64298C17.7736 8.35263 17.211 8.82229 16.4519 8.89274C16.1196 8.92174 15.7866 8.84651 15.499 8.6775C15.2115 8.50848 14.9837 8.25408 14.8475 7.94967C14.7873 7.81722 14.7244 7.76509 14.5788 7.77261C14.297 7.78623 13.986 7.70451 13.7451 7.80407C13.5041 7.90364 13.3346 8.1751 13.1345 8.37236C12.5145 8.98573 12.7052 8.89837 11.8546 8.9026C11.1458 8.90589 10.4371 8.9026 9.72829 8.9026H9.53149V7.84869H9.71937C10.4868 7.84869 11.2543 7.85151 12.0209 7.844C12.1103 7.84003 12.1955 7.80498 12.2618 7.7449C12.5436 7.47907 12.8146 7.20433 13.0842 6.92723C13.1474 6.85806 13.2249 6.80349 13.3112 6.76732C13.3976 6.73114 13.4909 6.71423 13.5845 6.71776C13.9358 6.72496 14.2873 6.72402 14.6389 6.71494C14.6724 6.71122 14.7046 6.7 14.7332 6.68211C14.7617 6.66422 14.7858 6.64013 14.8038 6.61162C15.1485 5.89446 15.7775 5.51873 16.5092 5.60421C17.2856 5.69485 17.7967 6.18001 17.9733 6.99298C17.9795 7.00957 17.9877 7.02534 17.9977 7.03995L18 7.46076Z" fill="#FEC532"/>
<path d="M9.53247 6.06447V5.02606C9.84622 5.02606 10.1581 4.99695 10.462 5.03311C10.881 5.08336 11.1891 4.9481 11.4446 4.62075C11.5855 4.43759 11.7687 4.2826 11.9392 4.12245C12.0101 4.05623 12.0185 4.00363 11.9819 3.91251C11.6202 3.01124 12.1153 1.97425 13.034 1.69856C13.2549 1.6324 13.4871 1.61298 13.7159 1.64153C13.9447 1.67009 14.1651 1.74599 14.3629 1.86441C14.5607 1.98283 14.7317 2.14116 14.865 2.32932C14.9982 2.51747 15.0908 2.73132 15.1368 2.95723C15.2618 3.58 15.0847 4.12339 14.5948 4.53574C14.1049 4.9481 13.5347 5.06692 12.9218 4.83257C12.7992 4.7856 12.7339 4.81002 12.6531 4.89456C12.3342 5.22332 12.0073 5.54128 11.6869 5.86675C11.562 5.99355 11.4202 6.07856 11.2398 6.07903C10.6954 6.07903 10.1506 6.07903 9.60621 6.07903C9.58124 6.0764 9.55657 6.07152 9.53247 6.06447Z" fill="#FEC532"/>
<path d="M9.52954 13.9932V12.9459C9.58496 12.9435 9.64039 12.9388 9.69581 12.9388C10.1881 12.9388 10.6822 12.9435 11.1716 12.936C11.2708 12.9326 11.3697 12.9509 11.4611 12.9896C11.5525 13.0284 11.6344 13.0867 11.7009 13.1605C12.0105 13.4803 12.3322 13.7879 12.6403 14.1087C12.7342 14.2055 12.8056 14.2271 12.9386 14.1759C13.6591 13.8988 14.4965 14.1759 14.9009 14.8094C15.3194 15.467 15.2231 16.3795 14.6783 16.9135C14.1335 17.4475 13.2326 17.532 12.606 17.1103C11.9485 16.6683 11.6826 15.8314 11.9748 15.1157C12.0175 15.0114 12.0058 14.9527 11.9278 14.8766C11.6657 14.6253 11.4168 14.36 11.1514 14.1125C11.0769 14.0452 10.9819 14.005 10.8818 13.9984C10.437 13.9866 9.99313 13.9932 9.52954 13.9932Z" fill="#FEC532"/>
</g>
<defs>
<clipPath id="clip0_144_548">
<rect width="18" height="18" fill="white" transform="translate(0 0.5)"/>
</clipPath>
</defs>
</svg>
