<svg width="18" height="17" viewBox="0 0 18 17" fill="none" xmlns="http://www.w3.org/2000/svg">
<g clip-path="url(#clip0_144_574)">
<path d="M18.0001 1.73727L17.9434 1.91288C17.8839 2.12346 17.7786 2.31833 17.6352 2.48363C17.4918 2.64894 17.3137 2.78061 17.1137 2.86929C16.9136 2.95797 16.6964 3.00148 16.4776 2.99672C16.2588 2.99196 16.0438 2.93907 15.8478 2.84178C15.8073 2.81545 15.7601 2.8014 15.7118 2.8014C15.6636 2.8014 15.6163 2.81545 15.5759 2.84178C14.7603 3.33265 13.9409 3.82162 13.1177 4.30872C13.0802 4.32742 13.049 4.3567 13.0278 4.39293C13.0067 4.42915 12.9966 4.47073 12.9988 4.51261C12.9962 4.86802 12.867 5.21085 12.6345 5.47967C12.402 5.74849 12.0814 5.92571 11.7301 5.97955C11.3786 6.03094 11.0202 5.95696 10.7178 5.77054C10.4154 5.58412 10.1882 5.29721 10.0762 4.96008C10.043 4.8788 9.98564 4.80964 9.91195 4.76186L7.64638 3.62907C7.61521 3.60607 7.57749 3.59367 7.53876 3.59367C7.50003 3.59367 7.46231 3.60607 7.43115 3.62907C7.22301 3.80255 6.97011 3.91374 6.70157 3.94981C6.43302 3.98588 6.15975 3.94537 5.91321 3.83296C5.87942 3.80855 5.83879 3.79542 5.7971 3.79542C5.75541 3.79542 5.71478 3.80855 5.68099 3.83296L3.01894 5.81534C2.98093 5.83885 2.9526 5.87521 2.93909 5.91781C2.92558 5.96041 2.92779 6.00647 2.9453 6.04758C3.02919 6.32875 3.02474 6.62885 2.93256 6.90741C2.84039 7.18596 2.66492 7.42954 2.42988 7.60517C2.21002 7.79514 1.93646 7.91192 1.64719 7.93932C1.35792 7.96673 1.06729 7.90334 0.815665 7.75804C0.550743 7.63216 0.331243 7.42747 0.187253 7.17194C0.0432628 6.91641 -0.0181674 6.6226 0.0113869 6.33078C0.0254139 6.092 0.0971753 5.86016 0.220509 5.65522C0.343843 5.45027 0.515066 5.2783 0.719483 5.15409C0.9239 5.02988 1.1554 4.95716 1.39412 4.94211C1.63285 4.92706 1.87165 4.97011 2.09005 5.06766C2.14153 5.09602 2.20082 5.10695 2.25902 5.09878C2.31722 5.09061 2.37121 5.06381 2.41289 5.02238L4.97866 3.11363C5.02464 3.09047 5.05981 3.05032 5.07672 3.0017C5.09364 2.95307 5.09096 2.89981 5.06928 2.85311C5.01097 2.66087 4.99216 2.45877 5.01396 2.25906C5.03576 2.05936 5.09774 1.86615 5.19615 1.69101C5.29457 1.51587 5.42739 1.36242 5.58663 1.23994C5.74587 1.11747 5.92825 1.02849 6.12277 0.978317C6.31818 0.927149 6.52192 0.916081 6.72172 0.945821C6.92151 0.975562 7.1132 1.04551 7.28523 1.15137C7.45726 1.25724 7.60605 1.39684 7.72264 1.56179C7.83922 1.72674 7.92118 1.91361 7.96355 2.1111C7.96355 2.24704 7.96356 2.3943 7.99754 2.53023C7.99754 2.58121 7.99754 2.64917 8.05418 2.66616L10.1838 3.73098C10.298 3.52191 10.4602 3.34306 10.6572 3.20912C10.8542 3.07517 11.0802 2.98999 11.3166 2.9607C11.5501 2.92914 11.7878 2.95325 12.0103 3.03101C12.2327 3.10877 12.4336 3.238 12.5967 3.40817L15.0888 1.92989C14.9868 1.6398 14.9779 1.32511 15.0631 1.02969C15.1484 0.734264 15.3237 0.472791 15.5646 0.281663C15.7606 0.121191 15.9942 0.0131368 16.2435 -0.0323008C16.4927 -0.0777383 16.7494 -0.0590622 16.9895 0.0219049C17.2296 0.102872 17.4451 0.24348 17.616 0.430591C17.7868 0.617702 17.9073 0.845204 17.9661 1.09164C17.9661 1.13695 17.9944 1.17659 18.0057 1.2219L18.0001 1.73727Z" fill="#FEC532"/>
<path d="M18.0001 16.6334C17.9435 16.7585 17.8476 16.8617 17.7269 16.9271C17.6062 16.9926 17.4674 17.0168 17.3317 16.9959C16.7653 16.9959 16.1989 16.9959 15.5929 16.9959C15.1851 16.9959 15.0265 16.8147 15.0265 16.4295V6.60828C15.0185 6.53193 15.0276 6.45476 15.0533 6.3824C15.0789 6.31004 15.1204 6.24427 15.1746 6.18999C15.2289 6.1357 15.2946 6.09428 15.367 6.06864C15.4394 6.04301 15.5165 6.03388 15.5929 6.04189C16.1593 6.04189 16.7653 6.04189 17.3487 6.04189C17.485 6.02197 17.6239 6.04859 17.7432 6.11746C17.8624 6.18632 17.9549 6.29336 18.0057 6.42133L18.0001 16.6334Z" fill="#FEC532"/>
<path d="M8.00317 12.0173V16.3276C8.00317 16.3955 8.00317 16.4635 8.00317 16.5371C7.99585 16.6643 7.93897 16.7837 7.84474 16.8694C7.7505 16.9552 7.62641 17.0006 7.49908 16.996H5.51671C5.38844 17.0006 5.26353 16.9544 5.16914 16.8674C5.07475 16.7805 5.0185 16.6597 5.01261 16.5315C5.00979 16.4805 5.00979 16.4295 5.01261 16.3786V7.48618C5.01705 7.35497 5.07308 7.23082 5.16853 7.14068C5.26397 7.05054 5.39112 7.0017 5.52237 7.00475H7.51041C7.57364 7.00248 7.6367 7.01271 7.69598 7.03483C7.75526 7.05695 7.80961 7.0905 7.8559 7.13363C7.90219 7.17677 7.93952 7.22865 7.96577 7.28622C7.99201 7.3438 8.00664 7.40593 8.00884 7.46917C8.00884 7.53713 8.00884 7.61076 8.00884 7.67873L8.00317 12.0173Z" fill="#FEC532"/>
<path d="M13.0043 13.0028V16.4012C13.0043 16.843 12.8287 17.0186 12.3926 17.0186H10.5972C10.1837 17.0186 10.0308 16.8373 10.0308 16.4182V9.62146C10.0308 9.191 10.2063 9.00978 10.6368 9.00978H12.4436C12.8457 9.00978 13.01 9.19669 13.01 9.57617L13.0043 13.0028Z" fill="#FEC532"/>
<path d="M3.00189 14.0054V16.3955C3.00189 16.826 2.82064 16.9959 2.39018 16.9959H0.600373C0.192569 16.9959 0.00565721 16.8147 0.00565721 16.4295C0.00565721 14.821 0.00565721 13.2067 0.00565721 11.5982C-0.00460135 11.5214 0.0029887 11.4433 0.0278252 11.3699C0.0526617 11.2965 0.0940751 11.2298 0.148863 11.175C0.203651 11.1202 0.270332 11.0788 0.343725 11.054C0.417119 11.0291 0.495251 11.0215 0.572051 11.0318H2.43549C2.81498 11.0318 3.00189 11.2244 3.00189 11.5982V14.0054Z" fill="#FEC532"/>
</g>
<defs>
<clipPath id="clip0_144_574">
<rect width="18" height="17.0031" fill="white" transform="translate(0 -0.00157166)"/>
</clipPath>
</defs>
</svg>
