<svg width="18" height="19" viewBox="0 0 18 19" fill="none" xmlns="http://www.w3.org/2000/svg">
<g clip-path="url(#clip0_144_571)">
<path d="M8.10206 4.04218C8.10206 3.65124 8.10939 3.2852 8.09586 2.92029C8.09586 2.85014 8.01582 2.77885 7.96452 2.71549C7.82502 2.54655 7.72857 2.34607 7.6835 2.13136C7.63844 1.91665 7.64611 1.69416 7.70585 1.48309C7.7656 1.27201 7.87562 1.07871 8.02643 0.91986C8.17724 0.761005 8.36429 0.641373 8.57146 0.571292C8.77862 0.501211 8.99966 0.482782 9.21551 0.517603C9.43135 0.552425 9.6355 0.639446 9.81035 0.771156C9.9852 0.902866 10.1255 1.07531 10.2191 1.27359C10.3127 1.47188 10.3569 1.69006 10.3477 1.90929C10.3347 2.23121 10.2073 2.50673 10.0061 2.75792C9.94417 2.83781 9.90782 2.93466 9.90183 3.0357C9.88887 3.35931 9.89676 3.68349 9.89676 4.04331H15.1704C16.3541 4.04331 17.1021 4.80085 17.1026 5.99233V8.50427C17.1229 8.52011 17.1319 8.532 17.1438 8.53539C17.823 8.71983 17.9994 8.95179 17.9994 9.65898C17.9994 10.1602 17.9994 10.6615 17.9994 11.1627C17.9994 11.7698 17.726 12.0883 17.1032 12.189V12.4091C17.1032 13.7997 17.1032 15.1903 17.1032 16.581C17.1032 17.7436 16.3496 18.4994 15.1867 18.5C11.0656 18.5 6.94467 18.5 2.82392 18.5C1.65038 18.5 0.899578 17.7447 0.899014 16.5685C0.899014 15.1922 0.899014 13.8156 0.899014 12.4385V12.2043C0.775933 12.1764 0.655 12.1398 0.537143 12.0945C0.192745 11.9356 0.00786418 11.6606 0.0044822 11.2776C-0.000590761 10.7056 0.00166389 10.1336 0.0044822 9.56167C0.0044822 8.97046 0.281804 8.6508 0.900705 8.55236V8.33511C0.900705 7.53005 0.900705 6.72554 0.900705 5.92048C0.900705 4.82065 1.67856 4.04501 2.77714 4.04388C4.45798 4.04388 6.13882 4.04388 7.81966 4.04388L8.10206 4.04218ZM12.5882 13.0908H5.41621V14.8696H12.5882V13.0908ZM10.8048 9.32518C10.8048 10.0397 10.9931 10.5489 11.3217 10.8895C11.8194 11.4066 12.502 11.4015 12.9924 10.8776C13.6727 10.1506 13.6688 8.76508 12.9811 8.04375C12.5026 7.54079 11.825 7.53061 11.3397 8.02791C11.0023 8.37552 10.8109 8.83992 10.8048 9.32518ZM7.19738 9.49491C7.19287 8.92915 7.05083 8.42903 6.6619 8.02791C6.18899 7.54023 5.53458 7.5391 5.05039 8.01433C4.30974 8.74415 4.31763 10.2151 5.06786 10.937C5.53401 11.3857 6.17264 11.3896 6.63372 10.937C7.03786 10.5331 7.18611 10.029 7.19625 9.49491H7.19738Z" fill="#FEC532"/>
</g>
<defs>
<clipPath id="clip0_144_571">
<rect width="18" height="18" fill="white" transform="translate(0 0.5)"/>
</clipPath>
</defs>
</svg>
