<svg width="18" height="19" viewBox="0 0 18 19" fill="none" xmlns="http://www.w3.org/2000/svg">
    <g clip-path="url(#clip0_501_1075)"
        transform="matrix(0.769324004650116, 0, 0, 0.7693240046501159, -9.455686769605975, -0.1447409869112645)"
        style="">
        <path
            d="M31.8801 2.14241C32.4749 2.14241 33.0452 2.38475 33.4657 2.81611C33.8863 3.24748 34.1225 3.83254 34.1225 4.44259V20.6307C34.1254 20.9335 34.0693 21.2339 33.9576 21.5143C33.8459 21.7947 33.6808 22.0494 33.472 22.2636C33.2633 22.4778 33.0149 22.6471 32.7416 22.7616C32.4683 22.8762 32.1754 22.9337 31.8801 22.9308H16.0987C15.8043 22.9308 15.5127 22.8713 15.2406 22.7557C14.9685 22.6401 14.7213 22.4707 14.5131 22.2571C14.3049 22.0435 14.1397 21.79 14.027 21.5109C13.9143 21.2318 13.8563 20.9327 13.8563 20.6307V4.50769C13.8507 4.20096 13.9044 3.89613 14.0144 3.61082C14.1243 3.32551 14.2882 3.06537 14.4967 2.84544C14.7053 2.62551 14.9542 2.45014 15.2292 2.32947C15.5041 2.2088 15.7997 2.14522 16.0987 2.14241H31.8801ZM31.8801 0.536621H16.0987C15.0905 0.542319 14.1252 0.955669 13.4123 1.68695C12.6994 2.41823 12.2964 3.40842 12.2909 4.44259V20.6307C12.2909 21.6666 12.6921 22.6601 13.4062 23.3926C14.1203 24.1251 15.0888 24.5366 16.0987 24.5366H31.8801C32.381 24.5395 32.8774 24.4404 33.3407 24.2452C33.8039 24.0499 34.2248 23.7623 34.5789 23.399C34.9331 23.0357 35.2135 22.604 35.4038 22.1288C35.5942 21.6536 35.6908 21.1444 35.688 20.6307V4.50769C35.688 3.47176 35.2868 2.47826 34.5727 1.74575C33.8586 1.01324 32.89 0.60172 31.8801 0.60172V0.536621Z"
            style="fill: rgb(254, 197, 50);" />
        <path
            d="M21.4509 8.21826H23.5663L26.4434 16.3557H24.6241L23.9894 14.5763H20.922L20.3085 16.3557H18.5527L21.4509 8.21826ZM23.5663 13.1658L22.5086 10.0844L21.472 13.1658H23.5663Z"
            style="fill: rgb(254, 197, 50);" />
        <path d="M28.8127 8.21826V16.3557H27.0992V8.21826H28.8127Z" style="fill: rgb(254, 197, 50);" />
    </g>
</svg> 
 