<svg width="18" height="19" viewBox="0 0 18 19" fill="none" xmlns="http://www.w3.org/2000/svg">
<g clip-path="url(#clip0_144_564)">
<path d="M3.10205 12.7216H6.46078C6.55926 13.0487 6.65422 13.3581 6.74566 13.6676C7.16795 13.6385 7.56705 13.4638 7.8749 13.1732C8.18275 12.8827 8.38028 12.4944 8.43382 12.0745H7.55457C7.55457 11.99 7.55457 11.9232 7.55457 11.8564C7.55457 10.7274 7.55457 9.59849 7.55457 8.46601C7.54777 8.40363 7.56406 8.34092 7.60034 8.28973C7.63663 8.23854 7.69041 8.2024 7.75152 8.18816C8.49658 7.89247 9.14764 7.40052 9.6356 6.76457C10.1236 6.12862 10.4302 5.37239 10.5229 4.57619C10.5234 4.50327 10.5493 4.43281 10.5961 4.37694C10.643 4.32108 10.7079 4.28332 10.7797 4.27021C12.009 3.89779 13.1536 3.28846 14.1489 2.47655L14.3353 2.33234V14.364C12.8708 13.1068 11.0622 12.3189 9.14425 12.1026C8.91916 13.3722 8.14542 14.0897 6.89689 14.3499C6.92503 14.5961 6.9602 14.8353 6.98482 15.0533C7.01647 15.3523 7.04109 15.6477 7.0657 15.9432C7.06616 16.0058 7.07902 16.0677 7.10352 16.1254C7.12803 16.1831 7.16371 16.2353 7.2085 16.2791C7.25329 16.3229 7.3063 16.3574 7.36449 16.3806C7.42268 16.4039 7.48489 16.4153 7.54754 16.4144C7.70392 16.4162 7.85837 16.4492 8.00183 16.5115C8.1453 16.5738 8.27488 16.6641 8.38298 16.7771C8.49108 16.8901 8.57553 17.0236 8.63136 17.1696C8.6872 17.3157 8.71331 17.4715 8.70815 17.6278C8.7041 17.7857 8.66859 17.9413 8.60371 18.0854C8.53883 18.2295 8.44588 18.3592 8.33028 18.4669C8.21468 18.5747 8.07876 18.6583 7.93048 18.7129C7.78219 18.7675 7.6245 18.7919 7.46664 18.7849C6.87203 18.8072 6.27661 18.7943 5.68353 18.7462C5.27388 18.6903 4.89704 18.4918 4.61918 18.1857C4.34133 17.8795 4.18023 17.4852 4.16418 17.0721C4.10091 15.5884 3.75348 14.1306 3.14074 12.7779C3.1126 12.7743 3.10908 12.7462 3.10205 12.7216Z" fill="#FEC532"/>
<path d="M18.0036 8.35698C18.0036 10.6243 18.0036 12.8916 18.0036 15.1589C18.031 15.4699 17.9401 15.7798 17.7491 16.0269C17.5581 16.2739 17.2811 16.4399 16.9732 16.4918C16.6646 16.5428 16.3497 16.5428 16.0411 16.4918C15.7723 16.4458 15.5265 16.3116 15.3425 16.1103C15.1584 15.9091 15.0466 15.6523 15.0247 15.3805C15.0195 15.2903 15.0195 15.1998 15.0247 15.1096V1.5938C15.0066 1.39279 15.036 1.19035 15.1105 1.0028C15.1851 0.815238 15.3027 0.647833 15.4538 0.5141C15.6127 0.372065 15.8052 0.272793 16.013 0.225682C16.3547 0.176431 16.7018 0.176431 17.0435 0.225682C17.3122 0.277295 17.555 0.419753 17.7311 0.629158C17.9072 0.838562 18.0059 1.10218 18.0107 1.37575C18.0107 1.99826 18.0107 2.62431 18.0107 3.24681L18.0036 8.35698Z" fill="#FEC532"/>
<path d="M6.04574 0.204588C6.55467 0.194848 7.06027 0.288527 7.53191 0.479997C8.00354 0.671467 8.43138 0.956727 8.7895 1.31846C9.14761 1.6802 9.42855 2.11087 9.61527 2.5844C9.80199 3.05794 9.89061 3.56449 9.87575 4.07329C9.85568 5.0792 9.44452 6.0377 8.72949 6.74551C8.01446 7.45332 7.05181 7.85472 6.04574 7.86458C5.03685 7.85632 4.07157 7.45211 3.35783 6.73903C2.64408 6.02594 2.23899 5.06105 2.2298 4.05216C2.21791 3.54632 2.30825 3.0433 2.4954 2.5732C2.68256 2.10309 2.96268 1.67558 3.31899 1.31632C3.67529 0.957053 4.10045 0.673434 4.56899 0.482402C5.03753 0.291369 5.53981 0.196875 6.04574 0.204588ZM4.34352 4.01348C4.34352 4.40387 4.34352 4.79076 4.34352 5.17763C4.33286 5.29967 4.35706 5.42222 4.41331 5.53105C4.46957 5.63987 4.55555 5.73049 4.66127 5.79237C4.767 5.85426 4.88812 5.88487 5.01055 5.88064C5.13298 5.87641 5.2517 5.8375 5.35289 5.76846C6.02112 5.38863 6.68584 5.00527 7.34703 4.6184C7.46273 4.56703 7.56104 4.4832 7.63004 4.37707C7.69903 4.27095 7.73576 4.14711 7.73576 4.02052C7.73576 3.89394 7.69903 3.77005 7.63004 3.66393C7.56104 3.5578 7.46273 3.47401 7.34703 3.42265C6.69053 3.04047 6.03168 2.66059 5.37048 2.2831C5.26862 2.21181 5.14855 2.17102 5.02434 2.16551C4.90012 2.16001 4.77691 2.19002 4.66914 2.25202C4.56137 2.31403 4.4735 2.40547 4.41583 2.51562C4.35816 2.62577 4.33308 2.75008 4.34352 2.87398C4.34703 3.25381 4.35055 3.63365 4.35055 4.01348H4.34352Z" fill="#FEC532"/>
<path d="M6.86508 8.45193V12.085C6.09134 12.085 5.33167 12.085 4.572 12.085C4.0595 12.1005 3.5466 12.0735 3.03859 12.0041C2.33322 11.8956 1.67755 11.5751 1.15867 11.0851C0.639795 10.5951 0.282256 9.95886 0.133547 9.26086C-0.0656913 8.5515 -0.0423374 7.79806 0.200452 7.1024C0.44324 6.40674 0.893758 5.80238 1.49111 5.37103L1.70565 5.22683C2.0086 6.31424 2.70904 7.24818 3.66813 7.84349C4.61844 8.44343 5.76083 8.66084 6.86508 8.45193Z" fill="#FEC532"/>
<path d="M5.01172 5.23387V2.83529L7.06564 4.02052L5.01172 5.23387Z" fill="#FEC532"/>
</g>
<defs>
<clipPath id="clip0_144_564">
<rect width="18" height="18.626" fill="white" transform="translate(0 0.186989)"/>
</clipPath>
</defs>
</svg>
