<svg width="18" height="19" viewBox="0 0 18 19" fill="none" xmlns="http://www.w3.org/2000/svg">
<g clip-path="url(#clip0_144_555)">
<path d="M5.848 18.4968C5.70164 18.4504 5.55788 18.3957 5.41735 18.3331C5.09885 18.1713 4.84571 17.8997 4.70205 17.5656C4.55839 17.2314 4.53335 16.8561 4.63127 16.5049C4.7292 16.1537 4.94387 15.8491 5.23788 15.644C5.53189 15.439 5.88658 15.3466 6.24006 15.3829C6.59354 15.4193 6.9234 15.5821 7.17211 15.8429C7.42082 16.1038 7.57261 16.4462 7.60097 16.8103C7.62934 17.1745 7.5325 17.5373 7.32734 17.8355C7.12219 18.1338 6.82173 18.3485 6.47838 18.4423L6.30989 18.4968H5.848Z" fill="#FEC532"/>
<path d="M14.9792 18.4968C14.8328 18.4504 14.6891 18.3957 14.5486 18.3331C14.2298 18.1715 13.9764 17.8999 13.8325 17.5657C13.6886 17.2316 13.6634 16.8561 13.7613 16.5047C13.8592 16.1534 14.0739 15.8486 14.368 15.6435C14.6622 15.4383 15.017 15.346 15.3706 15.3824C15.7242 15.4189 16.0542 15.5819 16.3028 15.843C16.5515 16.1041 16.7031 16.4467 16.7312 16.811C16.7593 17.1754 16.662 17.5382 16.4565 17.8364C16.2509 18.1345 15.9501 18.3489 15.6065 18.4422L15.4411 18.4968H14.9792Z" fill="#FEC532"/>
<path d="M11.3404 14.5817H6.89967C6.3916 14.5957 5.89847 14.4042 5.52619 14.0484C5.15391 13.6925 4.93224 13.2007 4.90872 12.6786C4.90977 12.4224 4.94012 12.1671 4.9992 11.9181C5.03664 11.7031 5.10218 11.4945 5.15523 11.2763C5.24796 10.9068 5.23386 10.5176 5.11466 10.1563C4.28248 7.60395 3.4503 5.05268 2.61813 2.50249C2.59018 2.36545 2.51294 2.24434 2.40183 2.1634C2.29072 2.08247 2.15397 2.0477 2.01898 2.06606H0.789421C0.686699 2.07168 0.583923 2.05593 0.487259 2.01975C0.390596 1.98357 0.302021 1.92771 0.226848 1.8555C0.151676 1.78329 0.0914675 1.69621 0.049787 1.5995C0.00810653 1.50279 -0.0141627 1.39843 -0.0156967 1.29265C-0.017895 1.18685 0.000944154 1.0817 0.0396921 0.983661C0.07844 0.88562 0.136278 0.796756 0.20963 0.722527C0.282981 0.648298 0.370321 0.590269 0.466269 0.552003C0.562218 0.513737 0.664754 0.49604 0.767593 0.5C1.50823 0.5 2.24574 0.5 2.98013 0.5C3.15712 0.489251 3.33221 0.542358 3.4752 0.650153C3.6182 0.757948 3.72013 0.913671 3.76342 1.09048C3.98811 1.77295 4.21072 2.4565 4.43125 3.14112C4.44255 3.21902 4.46895 3.29378 4.50893 3.36097C4.5489 3.42816 4.60162 3.48639 4.66393 3.5322C4.72624 3.57801 4.79687 3.61046 4.87162 3.62763C4.94637 3.64479 5.02374 3.64632 5.09908 3.63211H17.0824C17.2007 3.6255 17.3193 3.63521 17.435 3.66098C17.5372 3.68988 17.6323 3.74057 17.7142 3.80975C17.7961 3.87892 17.8629 3.96504 17.9103 4.0625C17.9577 4.15996 17.9846 4.26658 17.9893 4.37544C17.994 4.48429 17.9763 4.59294 17.9375 4.69433C17.6941 5.45811 17.4444 6.22188 17.1979 6.98565L15.9496 10.7853C15.9136 10.9934 15.8005 11.179 15.634 11.3029C15.4674 11.4269 15.2606 11.4794 15.0571 11.4495H7.15559C6.76238 11.4495 6.62507 11.5619 6.53145 11.9502C6.49089 12.117 6.44719 12.2711 6.40974 12.4476C6.38656 12.5131 6.37948 12.5835 6.3891 12.6525C6.39871 12.7215 6.4247 12.787 6.46483 12.8432C6.50496 12.8994 6.55795 12.9445 6.61911 12.9746C6.68026 13.0047 6.74772 13.0187 6.81544 13.0156H15.8029C15.9212 13.0106 16.0396 13.0203 16.1556 13.0445C16.3357 13.0951 16.491 13.2129 16.5914 13.3748C16.6918 13.5367 16.73 13.7313 16.6986 13.9206C16.67 14.1025 16.5785 14.2676 16.4408 14.3856C16.3032 14.5035 16.1287 14.5663 15.9496 14.5624C14.8449 14.5624 13.7371 14.5624 12.6324 14.5624L11.3404 14.5817Z" fill="#FEC532"/>
</g>
<defs>
<clipPath id="clip0_144_555">
<rect width="18" height="18" fill="white" transform="translate(0 0.5)"/>
</clipPath>
</defs>
</svg>
