<svg width="18" height="19" viewBox="0 0 18 19" fill="none" xmlns="http://www.w3.org/2000/svg">
<g clip-path="url(#clip0_144_598)">
<path d="M3.95225 8.42054C3.13581 8.42054 2.31809 8.42054 1.50165 8.42054C0.617694 8.42054 0.00249441 7.80406 0.0012207 6.92011C0.0012207 5.27958 0.0012207 3.6382 0.0012207 1.99596C0.0012207 1.11456 0.620241 0.503185 1.50547 0.501911C3.13921 0.501911 4.77337 0.501911 6.40796 0.501911C7.30719 0.501911 7.91857 1.11201 7.91984 2.01252C7.91984 3.64541 7.91984 5.27915 7.91984 6.91374C7.91984 7.80533 7.30464 8.41799 6.40286 8.42054H3.95225Z" fill="#FEC532"/>
<path d="M17.9987 4.46059C17.9987 5.2783 17.9987 6.09475 17.9987 6.91119C17.9987 7.80279 17.3848 8.41927 16.4843 8.42055C14.8497 8.42055 13.2159 8.42055 11.583 8.42055C10.6978 8.42055 10.0814 7.80535 10.0801 6.92394C10.0801 5.28256 10.0801 3.64118 10.0801 1.99979C10.0801 1.11712 10.6978 0.504464 11.583 0.503191C13.2244 0.503191 14.8658 0.503191 16.5072 0.503191C16.7047 0.495162 16.9017 0.528035 17.0858 0.599745C17.27 0.671455 17.4374 0.780446 17.5774 0.919897C17.7175 1.05935 17.8272 1.22624 17.8997 1.4101C17.9722 1.59396 18.0059 1.79083 17.9987 1.98834C18.0012 2.81242 17.9987 3.6365 17.9987 4.46059Z" fill="#FEC532"/>
<path d="M7.91984 14.5381C7.91984 15.3546 7.91984 16.1723 7.91984 16.9887C7.91984 17.8867 7.30592 18.4968 6.40541 18.4968C4.77082 18.4968 3.13666 18.4968 1.50292 18.4968C0.618965 18.4968 0.00249441 17.8816 0.0012207 17.0002C0.0012207 15.358 0.0012207 13.7166 0.0012207 12.0761C0.0012207 11.1934 0.618966 10.5807 1.50419 10.5795C3.14557 10.5795 4.78695 10.5795 6.42834 10.5795C6.62581 10.5714 6.82281 10.6043 7.00698 10.676C7.19115 10.7477 7.35851 10.8567 7.49855 10.9962C7.6386 11.1356 7.74832 11.3025 7.82082 11.4864C7.89331 11.6702 7.92703 11.8671 7.91984 12.0646C7.92366 12.8887 7.91984 13.7141 7.91984 14.5381Z" fill="#FEC532"/>
<path d="M14.0617 10.5782C15.1056 10.5852 16.1045 11.0039 16.8414 11.7432C17.5784 12.4825 17.9938 13.4828 17.9975 14.5267C17.9993 15.0489 17.8979 15.5664 17.699 16.0492C17.5001 16.5321 17.2077 16.9709 16.8386 17.3404C16.4695 17.7098 16.031 18.0026 15.5483 18.202C15.0656 18.4013 14.5483 18.5033 14.0261 18.5019C13.5037 18.5003 12.9868 18.3953 12.5052 18.1931C12.0236 17.9909 11.5867 17.6954 11.2197 17.3237C10.8527 16.952 10.5629 16.5114 10.3669 16.0272C10.1709 15.543 10.0725 15.0248 10.0776 14.5025C10.088 13.4546 10.513 12.4534 11.2596 11.718C12.0063 10.9826 13.0137 10.5728 14.0617 10.5782Z" fill="#FEC532"/>
</g>
<defs>
<clipPath id="clip0_144_598">
<rect width="18" height="17.9987" fill="white" transform="translate(0 0.500637)"/>
</clipPath>
</defs>
</svg>
