<svg width="18" height="19" viewBox="0 0 18 19" fill="none" xmlns="http://www.w3.org/2000/svg">
<g clip-path="url(#clip0_144_589)">
<path d="M17.9968 8.19117C18.0068 8.03996 17.96 7.89043 17.8657 7.77181C17.7714 7.65319 17.6363 7.57398 17.4867 7.54958C17.0216 7.43088 16.5564 7.31537 16.0881 7.2063C16.0377 7.20033 15.9904 7.17944 15.952 7.14627C15.9137 7.1131 15.8862 7.0692 15.8731 7.02025C15.801 6.81575 15.7175 6.61547 15.6229 6.42036C15.5961 6.37755 15.582 6.32806 15.582 6.27758C15.582 6.22711 15.5961 6.17766 15.6229 6.13485C15.8763 5.73385 16.1201 5.32642 16.3639 4.92222C16.4138 4.85825 16.4506 4.78509 16.4721 4.70688C16.4936 4.62867 16.4995 4.54695 16.4894 4.46647C16.4792 4.38599 16.4533 4.30833 16.4131 4.2379C16.3728 4.16747 16.319 4.10568 16.2549 4.05608L14.4327 2.23071C14.3326 2.10669 14.1879 2.02684 14.0296 2.00825C13.8713 1.98966 13.712 2.03383 13.5858 2.13129C13.188 2.37189 12.7935 2.60607 12.4021 2.85308C12.3565 2.88722 12.3022 2.90775 12.2454 2.91229C12.1886 2.91684 12.1317 2.90519 12.0813 2.87873C11.8983 2.78619 11.7085 2.7079 11.5135 2.64456C11.4589 2.62931 11.4101 2.59836 11.373 2.55559C11.336 2.51281 11.3123 2.46009 11.3049 2.40396C11.1959 1.94201 11.0868 1.48325 10.9681 1.02451C10.9465 0.868883 10.865 0.727844 10.741 0.631382C10.617 0.534921 10.4602 0.490657 10.3041 0.508028H7.7088C7.55012 0.494132 7.39215 0.541598 7.26743 0.640663C7.1427 0.739729 7.06071 0.882863 7.03833 1.04056C6.92284 1.50251 6.80735 1.96128 6.69828 2.42322C6.69107 2.47323 6.66927 2.51996 6.6356 2.55762C6.60193 2.59529 6.55789 2.62218 6.50901 2.63492C6.30419 2.70619 6.10386 2.78975 5.90911 2.88516C5.86535 2.90997 5.81527 2.92139 5.76507 2.91797C5.71488 2.91455 5.6668 2.89645 5.62681 2.86593C5.22902 2.61998 4.8291 2.37617 4.42703 2.1345C4.36273 2.08285 4.28876 2.04454 4.20947 2.02187C4.13017 1.99921 4.04714 1.99263 3.96526 2.00249C3.88338 2.01235 3.80429 2.03848 3.73264 2.07932C3.661 2.12017 3.59824 2.17491 3.54804 2.24035C2.94067 2.84131 2.33756 3.44442 1.73874 4.04966C1.6743 4.0987 1.62028 4.16011 1.57983 4.23026C1.53939 4.30042 1.51332 4.37791 1.50317 4.45825C1.49301 4.53859 1.49897 4.62013 1.52069 4.69814C1.54241 4.77616 1.57946 4.84905 1.62967 4.91258C1.87026 5.31358 2.11086 5.71462 2.35787 6.11241C2.39029 6.15453 2.40969 6.20519 2.41368 6.2582C2.41767 6.3112 2.40608 6.36422 2.38033 6.41073C2.2865 6.60096 2.20506 6.79704 2.13653 6.99777C2.12265 7.04925 2.09396 7.09553 2.05405 7.13088C2.01414 7.16623 1.96475 7.18914 1.91197 7.19671C1.4436 7.30578 0.978441 7.42125 0.513283 7.53994C0.358595 7.56306 0.218832 7.64505 0.123182 7.7688C0.0275309 7.89254 -0.0165994 8.04846 1.37091e-05 8.20398V10.8025C-0.0080715 10.9577 0.0404845 11.1106 0.136662 11.2328C0.23284 11.3549 0.370089 11.438 0.522907 11.4665C0.981649 11.582 1.4404 11.7007 1.90235 11.8034C1.95797 11.8127 2.00969 11.838 2.05125 11.8762C2.09281 11.9143 2.12244 11.9637 2.13653 12.0183C2.2039 12.2108 2.28409 12.4 2.37071 12.5861C2.4005 12.6301 2.41642 12.6821 2.41642 12.7353C2.41642 12.7884 2.4005 12.8404 2.37071 12.8845C2.12049 13.2822 1.87668 13.68 1.6425 14.0842C1.57429 14.2191 1.51534 14.3584 1.46606 14.5013C1.5366 14.6547 1.62374 14.7999 1.7259 14.9344C2.33542 15.5567 2.95456 16.1726 3.5737 16.7885C3.67195 16.9101 3.81376 16.9885 3.96893 17.0071C4.12411 17.0256 4.28041 16.9829 4.40457 16.888C4.77349 16.6667 5.14562 16.4517 5.50492 16.2143C5.57637 16.1526 5.66581 16.1155 5.75999 16.1086C5.85418 16.1016 5.94808 16.1252 6.02781 16.1759C6.17328 16.258 6.32847 16.3216 6.48976 16.3651C6.54792 16.3795 6.60017 16.4116 6.63925 16.457C6.67834 16.5024 6.70234 16.5589 6.70791 16.6186C6.81377 17.0741 6.92605 17.5296 7.02871 17.9819C7.0526 18.1397 7.13615 18.2822 7.26211 18.3801C7.38808 18.478 7.54683 18.5238 7.70559 18.508H10.272C10.4298 18.5192 10.5862 18.4718 10.7112 18.3746C10.8361 18.2775 10.9208 18.1377 10.9489 17.9819C11.0643 17.52 11.183 17.0612 11.2857 16.5993C11.2947 16.5435 11.3198 16.4916 11.358 16.45C11.3962 16.4083 11.4458 16.3788 11.5006 16.3651C11.6939 16.2959 11.8834 16.2167 12.0684 16.1277C12.1184 16.0997 12.1756 16.0871 12.2328 16.0917C12.2899 16.0963 12.3444 16.1177 12.3892 16.1534C12.7838 16.4004 13.1848 16.641 13.5858 16.8816C13.7126 16.9797 13.8728 17.0239 14.0319 17.0047C14.1911 16.9855 14.3362 16.9044 14.4359 16.779C15.0455 16.1716 15.6528 15.5631 16.2581 14.9536C16.3219 14.904 16.3753 14.8424 16.4152 14.7721C16.4551 14.7018 16.4807 14.6243 16.4906 14.5441C16.5004 14.4639 16.4943 14.3826 16.4726 14.3047C16.4508 14.2269 16.4139 14.1542 16.3639 14.0907C16.149 13.7314 15.9405 13.372 15.7223 13.0224C15.655 12.9474 15.6147 12.8521 15.6077 12.7515C15.6007 12.651 15.6275 12.551 15.6838 12.4674C15.7674 12.323 15.83 12.1675 15.8699 12.0055C15.8834 11.9535 15.9124 11.9069 15.9531 11.8719C15.9938 11.837 16.0443 11.8152 16.0977 11.8098C16.566 11.7007 17.0312 11.5852 17.4964 11.4665C17.6457 11.4421 17.7804 11.3627 17.8742 11.244C17.968 11.1253 18.014 10.9758 18.0032 10.8249C18.0032 9.94165 18.0011 9.06375 17.9968 8.19117ZM10.5543 11.3992C10.8466 11.6293 11.0845 11.9211 11.2508 12.2539C11.4172 12.5866 11.508 12.952 11.5167 13.3239C11.5167 13.5934 11.5167 13.8629 11.5167 14.1324C11.5234 14.2183 11.5115 14.3047 11.4816 14.3857C11.4518 14.4666 11.4047 14.5401 11.3437 14.601C11.2828 14.662 11.2093 14.709 11.1284 14.7389C11.0475 14.7687 10.9611 14.7807 10.8751 14.774H7.14419C7.05544 14.7818 6.96604 14.7701 6.8823 14.7397C6.79856 14.7092 6.7225 14.6608 6.6595 14.5978C6.59649 14.5348 6.54807 14.4587 6.51763 14.375C6.4872 14.2913 6.4755 14.2019 6.48335 14.1131C6.47886 13.6654 6.50997 13.2181 6.57638 12.7754C6.709 12.1983 7.05219 11.6916 7.53878 11.3542C7.53301 11.3109 7.51846 11.2693 7.49602 11.2318C7.47359 11.1943 7.44373 11.1618 7.40829 11.1363C7.37284 11.1107 7.33256 11.0927 7.28991 11.0833C7.24725 11.0739 7.20312 11.0733 7.16023 11.0816C6.24595 11.0816 5.32848 11.0816 4.41099 11.0816C4.3176 11.0949 4.2224 11.0863 4.13288 11.0565C4.04336 11.0268 3.96198 10.9767 3.89512 10.9101C3.82826 10.8436 3.77776 10.7624 3.74759 10.6731C3.71743 10.5837 3.70841 10.4885 3.72127 10.3951C3.71813 9.96565 3.74816 9.53665 3.81109 9.11186C3.94194 8.53063 4.28517 8.01923 4.77349 7.6779C4.23134 6.5904 4.35645 5.7082 5.12637 5.11152C5.45509 4.85424 5.86207 4.71737 6.27946 4.72379C6.69685 4.73022 7.09942 4.87953 7.42007 5.1468C7.77334 5.44768 8.0019 5.86933 8.06121 6.32955C8.12052 6.78977 8.00631 7.25559 7.74087 7.6362C7.96543 7.91209 8.18037 8.17835 8.40493 8.4382C8.43059 8.47028 8.50117 8.47027 8.5525 8.47027H9.48602C9.53783 8.47626 9.59009 8.46376 9.63359 8.43498C9.85494 8.17514 10.0731 7.90567 10.2976 7.63299C10.0338 7.25415 9.92043 6.79058 9.97973 6.33272C10.039 5.87486 10.2667 5.4555 10.6184 5.15639C10.9334 4.88821 11.3303 4.73541 11.7438 4.72317C12.1573 4.71092 12.5626 4.83996 12.8929 5.08904C13.6789 5.67931 13.8104 6.53907 13.2811 7.6779C13.3067 7.70036 13.3324 7.72923 13.3613 7.75168C13.6709 8.00358 13.9186 8.3231 14.0854 8.68569C14.2523 9.04827 14.3338 9.44429 14.3237 9.84329C14.3237 10.0422 14.3237 10.2411 14.3237 10.44C14.332 10.5286 14.3208 10.6179 14.2907 10.7016C14.2607 10.7854 14.2126 10.8615 14.1498 10.9246C14.087 10.9877 14.0112 11.0362 13.9275 11.0666C13.8439 11.0971 13.7546 11.1087 13.666 11.1008C12.7485 11.1008 11.8311 11.1008 10.9136 11.1008C10.8673 11.0916 10.8197 11.092 10.7735 11.1019C10.7274 11.1117 10.6838 11.1309 10.6453 11.1582C10.6069 11.1856 10.5744 11.2205 10.55 11.2608C10.5255 11.3011 10.5095 11.346 10.503 11.3927C10.5203 11.3973 10.5374 11.4027 10.5543 11.4088V11.3992Z" fill="#FEC532"/>
<path d="M9.71047 12.2813C9.51282 12.1415 9.27755 12.0645 9.03545 12.0605C8.79334 12.0565 8.55566 12.1256 8.35349 12.2589C8.13707 12.3912 7.96217 12.5816 7.84873 12.8085C7.7353 13.0354 7.68788 13.2895 7.71189 13.5421H10.336C10.3588 13.2946 10.3124 13.0457 10.2019 12.823C10.0915 12.6004 9.92133 12.4129 9.71047 12.2813Z" fill="#FEC532"/>
<path d="M10.7532 9.70209C10.7724 9.85607 10.8591 9.87854 10.9906 9.87533H12.8929H13.0726C13.1063 9.57713 13.0385 9.27624 12.8802 9.02129C12.7219 8.76635 12.4822 8.57222 12.2 8.47023C11.9261 8.37354 11.6276 8.37259 11.3531 8.46757C11.0787 8.56255 10.8445 8.74785 10.689 8.99314C10.6299 9.05586 10.5944 9.13715 10.5885 9.22316C10.5827 9.30917 10.6069 9.39455 10.657 9.4647C10.7047 9.53656 10.7374 9.61729 10.7532 9.70209Z" fill="#FEC532"/>
<path d="M5.86107 8.43498C5.55936 8.52513 5.29937 8.71927 5.12728 8.98298C4.95519 9.24669 4.88215 9.56289 4.92113 9.87536H6.84592C7.16672 9.87536 7.16672 9.87534 7.279 9.57379C7.31534 9.50568 7.34643 9.43493 7.37203 9.36209C7.39619 9.28153 7.39619 9.19563 7.37203 9.11507C7.24118 8.84141 7.01763 8.62296 6.74103 8.49846C6.46443 8.37396 6.15267 8.35147 5.86107 8.43498Z" fill="#FEC532"/>
<path d="M11.7764 7.16136C11.8582 7.16354 11.9396 7.14917 12.0157 7.11907C12.0917 7.08897 12.1609 7.04378 12.2191 6.98624C12.2772 6.92869 12.3231 6.85996 12.354 6.78421C12.3849 6.70846 12.4001 6.62725 12.3988 6.54545C12.4018 6.46174 12.3879 6.37828 12.3577 6.30012C12.3275 6.22196 12.2818 6.15071 12.2234 6.09073C12.1649 6.03075 12.0948 5.98325 12.0175 5.95112C11.9401 5.919 11.857 5.90293 11.7732 5.90386C11.6064 5.90886 11.4481 5.97866 11.3319 6.09844C11.2158 6.21823 11.1508 6.37858 11.1509 6.54545C11.1526 6.70995 11.2193 6.8671 11.3366 6.98252C11.4538 7.09794 11.6119 7.16222 11.7764 7.16136Z" fill="#FEC532"/>
<path d="M8.99512 10.8537C9.12287 10.8582 9.24906 10.8244 9.35748 10.7567C9.4659 10.689 9.55162 10.5904 9.60364 10.4737C9.65566 10.3569 9.67162 10.2272 9.64946 10.1013C9.6273 9.97543 9.56803 9.85901 9.47926 9.76702C9.39049 9.67503 9.27627 9.61167 9.15124 9.58504C9.02621 9.55841 8.89606 9.56971 8.77751 9.61754C8.65896 9.66537 8.5574 9.74754 8.48586 9.85348C8.41432 9.95942 8.37606 10.0843 8.37598 10.2121C8.37587 10.3785 8.44038 10.5384 8.55589 10.6581C8.6714 10.7778 8.82888 10.8479 8.99512 10.8537Z" fill="#FEC532"/>
<path d="M6.21717 7.16137C6.2998 7.16437 6.38221 7.15079 6.45952 7.12142C6.53682 7.09206 6.60746 7.04751 6.66726 6.9904C6.72706 6.93328 6.77483 6.86479 6.80772 6.78892C6.84061 6.71305 6.85796 6.63136 6.85876 6.54867C6.85876 6.37851 6.79117 6.21529 6.67084 6.09496C6.55052 5.97464 6.38733 5.90707 6.21717 5.90707C6.1342 5.90745 6.05217 5.9245 5.97592 5.9572C5.89968 5.9899 5.83078 6.03758 5.77333 6.09743C5.71587 6.15728 5.67104 6.22805 5.64147 6.30557C5.61191 6.38308 5.59823 6.46576 5.60124 6.54867C5.60037 6.62965 5.61573 6.70998 5.64642 6.78492C5.67711 6.85986 5.72249 6.92788 5.77991 6.98499C5.83732 7.0421 5.90559 7.08714 5.98069 7.11743C6.05579 7.14773 6.13619 7.16266 6.21717 7.16137Z" fill="#FEC532"/>
</g>
<defs>
<clipPath id="clip0_144_589">
<rect width="18" height="18.0032" fill="white" transform="translate(0 0.498398)"/>
</clipPath>
</defs>
</svg>
