<svg width="18" height="19" viewBox="0 0 18 19" fill="none" xmlns="http://www.w3.org/2000/svg">
<g clip-path="url(#clip0_144_581)">
<path d="M0.00341797 5.78134H18.014V16.4747C18.026 16.7436 17.9819 17.0121 17.8845 17.2631C17.7871 17.514 17.6385 17.7419 17.4481 17.9323C17.2577 18.1227 17.0298 18.2713 16.7789 18.3687C16.5279 18.4662 16.2594 18.5103 15.9905 18.4982H2.04109C1.77233 18.5108 1.50391 18.4671 1.25295 18.3701C1.002 18.2731 0.77404 18.1248 0.583622 17.9347C0.393204 17.7446 0.244503 17.5169 0.147036 17.2661C0.0495684 17.0154 0.00548157 16.747 0.0175577 16.4782V5.78134H0.00341797ZM9.01932 7.35637H2.81803C2.39425 7.35637 2.15057 7.55064 2.15057 7.8826C2.15057 8.21456 2.39424 8.40879 2.81449 8.40879H15.3619C15.4638 8.40177 15.5614 8.36438 15.642 8.30145C15.7225 8.23851 15.7824 8.1529 15.8139 8.05564C15.8446 7.97238 15.8538 7.88271 15.8406 7.79496C15.8273 7.70721 15.7921 7.62421 15.7382 7.55372C15.6843 7.48324 15.6134 7.42754 15.5322 7.3918C15.4509 7.35607 15.362 7.34147 15.2736 7.34934L9.01932 7.35637ZM6.01402 11.407V10.0544C6.02234 9.97494 6.0128 9.89461 5.98611 9.81927C5.95941 9.74393 5.91623 9.6755 5.85971 9.61899C5.80319 9.56247 5.73476 9.51929 5.65943 9.49259C5.58409 9.4659 5.50376 9.45638 5.42427 9.4647H2.73679C2.65743 9.45627 2.57719 9.46575 2.50199 9.49246C2.42679 9.51917 2.35855 9.56243 2.30229 9.61903C2.24603 9.67563 2.20319 9.74413 2.17693 9.81949C2.15067 9.89485 2.14167 9.97513 2.15057 10.0544C2.15057 10.9514 2.15057 11.8449 2.15057 12.7419C2.14224 12.8209 2.15167 12.9008 2.17818 12.9758C2.20469 13.0507 2.24763 13.1187 2.30382 13.1749C2.36001 13.2311 2.42805 13.274 2.50296 13.3005C2.57788 13.327 2.65776 13.3365 2.73679 13.3281H5.42427C5.50357 13.337 5.58385 13.328 5.65921 13.3017C5.73457 13.2755 5.80307 13.2327 5.85967 13.1764C5.91627 13.1202 5.95952 13.0519 5.98624 12.9767C6.01295 12.9015 6.02244 12.8212 6.01402 12.7419V11.407ZM7.07347 11.407C7.07347 11.859 7.07347 12.3111 7.07347 12.7596C7.06578 12.8375 7.07547 12.9162 7.10185 12.99C7.12824 13.0637 7.17065 13.1307 7.22605 13.1861C7.28144 13.2415 7.34845 13.2839 7.42222 13.3103C7.49598 13.3367 7.57467 13.3464 7.65263 13.3387H10.3577C10.4357 13.3464 10.5144 13.3367 10.5882 13.3103C10.6619 13.2839 10.7289 13.2415 10.7843 13.1861C10.8397 13.1307 10.8821 13.0637 10.9085 12.99C10.9349 12.9162 10.9446 12.8375 10.9369 12.7596V10.0544C10.9446 9.97647 10.9349 9.89778 10.9085 9.82401C10.8821 9.75025 10.8397 9.68326 10.7843 9.62787C10.7289 9.57247 10.6619 9.53006 10.5882 9.50367C10.5144 9.47728 10.4357 9.46757 10.3577 9.47526H7.65263C7.57467 9.46757 7.49598 9.47728 7.42222 9.50367C7.34845 9.53006 7.28144 9.57247 7.22605 9.62787C7.17065 9.68326 7.12824 9.75025 7.10185 9.82401C7.07547 9.89778 7.06578 9.97647 7.07347 10.0544C7.0664 10.4959 7.06993 10.9479 7.06993 11.3929L7.07347 11.407ZM11.9928 11.407V12.7596C11.9851 12.8375 11.9948 12.9162 12.0212 12.99C12.0476 13.0637 12.09 13.1307 12.1454 13.1861C12.2008 13.2415 12.2678 13.2839 12.3416 13.3103C12.4153 13.3367 12.494 13.3464 12.572 13.3387H15.2771C15.3551 13.3464 15.4338 13.3367 15.5075 13.3103C15.5813 13.2839 15.6483 13.2415 15.7037 13.1861C15.7591 13.1307 15.8015 13.0637 15.8279 12.99C15.8543 12.9162 15.864 12.8375 15.8563 12.7596C15.8563 11.8579 15.8563 10.9561 15.8563 10.0544C15.864 9.97647 15.8543 9.89778 15.8279 9.82401C15.8015 9.75025 15.7591 9.68326 15.7037 9.62787C15.6483 9.57247 15.5813 9.53006 15.5075 9.50367C15.4338 9.47728 15.3551 9.46757 15.2771 9.47526H12.5685C12.4905 9.46757 12.4118 9.47728 12.338 9.50367C12.2643 9.53006 12.1973 9.57247 12.1419 9.62787C12.0865 9.68326 12.0441 9.75025 12.0177 9.82401C11.9913 9.89778 11.9816 9.97647 11.9893 10.0544L11.9928 11.407ZM4.07523 15.4506H5.4278C5.50105 15.4573 5.57491 15.4491 5.64486 15.4263C5.7148 15.4036 5.77934 15.3667 5.83456 15.3181C5.88977 15.2695 5.93449 15.2102 5.96595 15.1437C5.99742 15.0772 6.01498 15.005 6.01755 14.9314C6.01798 14.8564 6.00255 14.7821 5.97229 14.7134C5.94203 14.6448 5.89762 14.5832 5.84195 14.5329C5.78628 14.4826 5.72062 14.4445 5.64925 14.4213C5.57788 14.3981 5.50243 14.3902 5.4278 14.3982H2.74032C2.66744 14.3909 2.59383 14.3987 2.52409 14.4211C2.45435 14.4435 2.38997 14.48 2.33497 14.5284C2.27997 14.5767 2.23553 14.6359 2.20441 14.7022C2.17329 14.7685 2.15616 14.8405 2.1541 14.9138C2.15379 14.9886 2.16912 15.0627 2.19913 15.1313C2.22914 15.1999 2.27317 15.2614 2.32837 15.312C2.38358 15.3625 2.44875 15.4009 2.51969 15.4248C2.59063 15.4487 2.66579 15.4575 2.74032 15.4506H4.07523ZM9.01932 15.4506H10.3542C10.4276 15.4569 10.5015 15.448 10.5713 15.4246C10.6411 15.4011 10.7053 15.3635 10.76 15.3141C10.8146 15.2648 10.8585 15.2047 10.889 15.1377C10.9194 15.0706 10.9357 14.998 10.9369 14.9244C10.9367 14.8511 10.9213 14.7786 10.8916 14.7116C10.8619 14.6445 10.8187 14.5844 10.7646 14.5349C10.7105 14.4855 10.6467 14.4478 10.5773 14.4242C10.5079 14.4007 10.4343 14.3918 10.3613 14.3982H7.65263C7.57962 14.3913 7.50598 14.3997 7.43638 14.4228C7.36677 14.4459 7.30272 14.4832 7.24827 14.5323C7.19383 14.5815 7.15018 14.6413 7.12009 14.7082C7.09 14.7751 7.07412 14.8475 7.07347 14.9208C7.07372 14.9943 7.08915 15.0669 7.11877 15.1341C7.1484 15.2013 7.19158 15.2617 7.24562 15.3114C7.29966 15.3611 7.36339 15.3991 7.43282 15.4231C7.50225 15.447 7.57589 15.4564 7.6491 15.4506H9.01932ZM13.9246 14.3911H12.5685C12.4953 14.3848 12.4215 14.3936 12.3519 14.4171C12.2823 14.4407 12.2183 14.4783 12.1639 14.5277C12.1096 14.5771 12.066 14.6372 12.0359 14.7043C12.0059 14.7713 11.99 14.8438 11.9893 14.9173C11.9905 14.9906 12.0067 15.0629 12.037 15.1297C12.0672 15.1965 12.1108 15.2564 12.165 15.3057C12.2193 15.355 12.2831 15.3927 12.3525 15.4164C12.4219 15.4401 12.4954 15.4493 12.5685 15.4435H15.2736C15.3471 15.4498 15.4211 15.4409 15.4909 15.4171C15.5608 15.3934 15.625 15.3555 15.6794 15.3057C15.7338 15.2559 15.7773 15.1954 15.8072 15.1279C15.837 15.0605 15.8525 14.9875 15.8527 14.9138C15.8521 14.8404 15.8362 14.768 15.8061 14.7011C15.776 14.6343 15.7324 14.5744 15.6779 14.5253C15.6235 14.4761 15.5595 14.4388 15.4899 14.4157C15.4202 14.3926 15.3466 14.3843 15.2736 14.3911H13.9246Z" fill="#FEC532"/>
<path d="M18 4.71483H9.52441V0.501787H15.9553C16.2257 0.48862 16.4959 0.53225 16.7485 0.629864C17.001 0.727479 17.2304 0.876911 17.4217 1.06854C17.613 1.26017 17.762 1.48973 17.8592 1.74246C17.9563 1.9952 17.9995 2.2655 17.9859 2.53593L18 4.71483Z" fill="#FEC532"/>
<path d="M8.4649 0.501778V4.70775H0.024629C0.024629 4.70775 0.0069759 4.70777 0.0069759 4.67951C0.0069759 3.88846 -0.014213 3.09742 0.0069759 2.30636C0.034271 1.81488 0.250556 1.353 0.610588 1.01732C0.97062 0.68164 1.44652 0.498175 1.93871 0.505313C3.26655 0.505313 4.59792 0.505313 5.92576 0.505313H8.45783L8.4649 0.501778ZM2.10822 3.13626C2.17685 3.13719 2.24501 3.12459 2.30878 3.09918C2.37255 3.07377 2.43069 3.03605 2.47988 2.98818C2.52907 2.9403 2.56833 2.8832 2.59546 2.82014C2.62258 2.75708 2.63702 2.68931 2.63794 2.62067C2.64079 2.48171 2.58854 2.34723 2.4926 2.24666C2.39666 2.14609 2.26481 2.08758 2.12587 2.08388C2.05677 2.08294 1.98817 2.09563 1.92397 2.12121C1.85977 2.1468 1.80124 2.18479 1.75173 2.23299C1.70221 2.2812 1.66265 2.33866 1.63535 2.40215C1.60806 2.46564 1.59353 2.53389 1.59261 2.603C1.59167 2.67299 1.60471 2.74249 1.63096 2.80738C1.6572 2.87227 1.69612 2.93127 1.74545 2.98093C1.79478 3.03059 1.85352 3.06988 1.91823 3.09655C1.98295 3.12323 2.05234 3.13673 2.12233 3.13626H2.10822ZM4.22711 3.13626C4.29621 3.13533 4.36444 3.12083 4.42793 3.09353C4.49142 3.06624 4.54893 3.02666 4.59714 2.97714C4.64534 2.92762 4.68331 2.86912 4.7089 2.80492C4.73448 2.74072 4.74716 2.6721 4.74623 2.603C4.74345 2.46374 4.68593 2.33119 4.58612 2.23403C4.48632 2.13687 4.35228 2.08292 4.21299 2.08388C4.07435 2.08757 3.94267 2.14549 3.84626 2.24519C3.74986 2.3449 3.69641 2.47845 3.69739 2.61714C3.69827 2.68746 3.71324 2.75686 3.74142 2.8213C3.7696 2.88574 3.81041 2.94387 3.86144 2.99227C3.91247 3.04067 3.97269 3.07838 4.03853 3.1031C4.10437 3.12783 4.17449 3.13909 4.24476 3.13626H4.22711ZM5.80568 2.59593C5.80187 2.7349 5.85321 2.86974 5.94849 2.97098C6.04378 3.07221 6.17526 3.13164 6.31421 3.13626C6.45319 3.14006 6.58802 3.08872 6.68926 2.99343C6.7905 2.89815 6.84993 2.76669 6.85454 2.62774C6.85745 2.48867 6.8059 2.35395 6.7109 2.25235C6.6159 2.15075 6.48495 2.0903 6.346 2.08388C6.21001 2.08647 6.08014 2.14095 5.98298 2.23614C5.88582 2.33133 5.82873 2.46002 5.82335 2.59593H5.80568Z" fill="#FEC532"/>
<path d="M4.94757 12.2687H3.21362V10.5277H4.94757V12.2687Z" fill="#FEC532"/>
<path d="M8.12939 12.2651V10.5277H9.86688V12.2651H8.12939Z" fill="#FEC532"/>
<path d="M13.0559 10.5241H14.7899V12.2687H13.0559V10.5241Z" fill="#FEC532"/>
</g>
<defs>
<clipPath id="clip0_144_581">
<rect width="18" height="17.9965" fill="white" transform="translate(0 0.501766)"/>
</clipPath>
</defs>
</svg>
