<svg width="18" height="13" viewBox="0 0 18 13" fill="none" xmlns="http://www.w3.org/2000/svg">
<g clip-path="url(#clip0_144_560)">
<path d="M8.99654 11.6081C8.80513 11.8126 8.64819 11.9898 8.48175 12.1562C8.23736 12.4072 7.94395 12.6052 7.61977 12.7379C7.29559 12.8707 6.94756 12.9353 6.59733 12.9278C5.28003 12.9278 3.96272 12.9278 2.64542 12.9278C1.12838 12.9278 0.0084285 11.8138 0.00367288 10.2968C-0.00187534 8.42543 -0.00187534 6.5541 0.00367288 4.68276C0.00367288 3.85053 0.541057 3.30958 1.37805 3.30839C6.45704 3.30839 11.5364 3.30839 16.6162 3.30839C17.4663 3.30839 17.9977 3.84458 17.9989 4.69346C17.9989 6.55766 17.9989 8.42305 17.9989 10.2873C17.9989 11.6105 17.15 12.6425 15.8779 12.885C15.6961 12.9161 15.5118 12.93 15.3275 12.9266C14.0363 12.9266 12.7452 12.9266 11.454 12.9266C11.0874 12.9379 10.7226 12.8717 10.3833 12.7324C10.0441 12.5931 9.73803 12.3838 9.48518 12.1182C9.33062 11.966 9.18439 11.8055 8.99654 11.6081ZM9.02032 4.59359H7.18227C6.76972 4.59359 6.48201 4.86228 6.48676 5.23798C6.49152 5.61367 6.77091 5.87167 7.17157 5.87285H10.8322C11.2317 5.87285 11.5146 5.60654 11.5194 5.23798C11.5241 4.86942 11.2317 4.59359 10.8215 4.59359H9.02032Z" fill="#FEC532"/>
<path d="M15.8053 1.98514H2.18994C2.24831 1.63698 2.3249 1.29212 2.4194 0.951979C2.48883 0.716054 2.62836 0.506813 2.81946 0.35202C3.01056 0.197226 3.24421 0.104199 3.48941 0.0852712C3.59402 0.0737958 3.69928 0.0694209 3.80447 0.0721877H14.1979C15.0456 0.0721877 15.4795 0.428859 15.659 1.26109C15.7066 1.49412 15.7553 1.7319 15.8053 1.98514Z" fill="#FEC532"/>
</g>
<defs>
<clipPath id="clip0_144_560">
<rect width="18" height="12.858" fill="white" transform="translate(0 0.071003)"/>
</clipPath>
</defs>
</svg>
