<svg width="22" height="17" viewBox="0 0 22 17" fill="none" xmlns="http://www.w3.org/2000/svg">
<g clip-path="url(#clip0_260_198)">
<g clip-path="url(#clip1_260_198)">
<rect y="0.5" width="22" height="16" rx="2" fill="#292929"/>
<path fill-rule="evenodd" clip-rule="evenodd" d="M2.34035 0.5H0V3.16667L19.6469 16.5L22 16.5V13.8333L2.34035 0.5Z" fill="#292929"/>
<path d="M0.780579 0.5L22 14.9378V16.5H21.2377L0 2.04726V0.5H0.780579Z" fill="#FEC532"/>
<path fill-rule="evenodd" clip-rule="evenodd" d="M19.9048 0.5H22V3.16667C22 3.16667 8.39122 12.0499 2.09524 16.5H0V13.8333L19.9048 0.5Z" fill="#292929"/>
<path d="M22 0.5H21.2895L0 14.9502V16.5H0.780579L22 2.05895V0.5Z" fill="#FEC532"/>
<path fill-rule="evenodd" clip-rule="evenodd" d="M8.00075 0.5H14.0176V5.43527H22V11.5615H14.0176V16.5H8.00075V11.5615H0V5.43527H8.00075V0.5Z" fill="#292929"/>
<path fill-rule="evenodd" clip-rule="evenodd" d="M9.26316 0.5H12.7368V6.65385H22V10.3462H12.7368V16.5H9.26316V10.3462H0V6.65385H9.26316V0.5Z" fill="#FEC532"/>
</g>
</g>
<defs>
<clipPath id="clip0_260_198">
<rect width="22" height="16" fill="white" transform="translate(0 0.5)"/>
</clipPath>
<clipPath id="clip1_260_198">
<rect y="0.5" width="22" height="16" rx="2" fill="white"/>
</clipPath>
</defs>
</svg>
