<svg width="16" height="17" viewBox="0 0 16 17" fill="none" xmlns="http://www.w3.org/2000/svg">
<g clip-path="url(#clip0_189_471)">
<path d="M15.8199 13.6115C16.3327 14.5002 15.6891 15.6111 14.665 15.6111H1.33484C0.308814 15.6111 -0.331798 14.4985 0.179925 13.6115L6.84509 2.05517C7.35806 1.16603 8.64287 1.16764 9.15493 2.05517L15.8199 13.6115ZM8.00001 11.2222C7.29431 11.2222 6.72223 11.7943 6.72223 12.5C6.72223 13.2057 7.29431 13.7778 8.00001 13.7778C8.7057 13.7778 9.27779 13.2057 9.27779 12.5C9.27779 11.7943 8.7057 11.2222 8.00001 11.2222ZM6.78687 6.6293L6.99293 10.4071C7.00256 10.5839 7.14873 10.7222 7.32576 10.7222H8.67426C8.85129 10.7222 8.99745 10.5839 9.00709 10.4071L9.21315 6.6293C9.22356 6.43836 9.07154 6.2778 8.88031 6.2778H7.11968C6.92845 6.2778 6.77645 6.43836 6.78687 6.6293Z" fill="#FEC532"/>
</g>
<defs>
<clipPath id="clip0_189_471">
<rect width="16" height="16" fill="white" transform="translate(0 0.5)"/>
</clipPath>
</defs>
</svg>
