<svg width="46" height="66" viewBox="0 0 46 66" fill="none" xmlns="http://www.w3.org/2000/svg">
    <g clip-path="url(#clip0_389_14529)">
        <path
            d="M44.9409 33.0001V61.116C44.9381 62.1264 44.536 63.0946 43.8224 63.8091C43.1088 64.5236 42.1417 64.9262 41.1326 64.929H4.87813C3.86896 64.9262 2.90193 64.5236 2.18834 63.8091C1.47474 63.0946 1.07259 62.1264 1.06976 61.116V33.0001H44.9409Z"
            fill="url(#paint0_linear_389_14529)" stroke="url(#paint1_linear_389_14529)"
            stroke-width="2.13743" stroke-miterlimit="10" />
        <path
            d="M44.9409 4.87351V33.0001H1.08044V4.87351C1.08608 3.86495 1.48948 2.89947 2.20277 2.18731C2.91607 1.47514 3.88148 1.07398 4.88881 1.07117H41.1432C42.1487 1.07679 43.1114 1.4792 43.8224 2.19107C44.5334 2.90293 44.9353 3.8668 44.9409 4.87351Z"
            fill="url(#paint2_linear_389_14529)" stroke="url(#paint3_linear_389_14529)"
            stroke-width="2.13743" stroke-miterlimit="10" />
        <path opacity="0.65"
            d="M2.01115 33.0001L1.94696 19.4402V9.597V6.20168C1.91186 5.62428 1.97334 5.04506 2.12884 4.48794C2.3129 3.9352 2.61185 3.42779 3.00602 2.99914C3.39506 2.56183 3.8829 2.22398 4.42883 2.01375C4.56472 1.96118 4.70412 1.91824 4.84602 1.88522C4.98641 1.84639 5.12941 1.81775 5.27392 1.79954C5.55882 1.77874 5.84486 1.77874 6.12976 1.79954H9.43533H22.9786H36.5111H39.9023C40.1872 1.77874 40.4732 1.77874 40.7581 1.79954C40.9026 1.81775 41.0456 1.84639 41.186 1.88522C41.3279 1.91824 41.4674 1.96118 41.6033 2.01375C42.1492 2.22398 42.637 2.56183 43.026 2.99914C43.4202 3.42779 43.7192 3.9352 43.9032 4.48794C44.0587 5.04506 44.1202 5.62428 44.0851 6.20168V9.597V19.4402L43.9995 33.0001L43.9246 19.4402V9.597V6.20168C43.9566 5.64907 43.8951 5.09503 43.7428 4.56293C43.5751 4.04003 43.2938 3.56084 42.919 3.15981C42.5512 2.75502 42.093 2.44305 41.5818 2.24939C41.4538 2.19538 41.3214 2.15239 41.186 2.12086C41.0575 2.08046 40.9246 2.05528 40.7902 2.04588C40.5161 2.02425 40.2407 2.02425 39.9665 2.04588H36.5753H23.0428H9.49952H6.10837C5.83422 2.02425 5.55878 2.02425 5.28463 2.04588C5.15022 2.05528 5.01738 2.08046 4.88882 2.12086C4.75348 2.15239 4.62107 2.19538 4.49301 2.24939C3.98182 2.44305 3.52361 2.75502 3.1558 3.15981C2.78107 3.56084 2.49973 4.04003 2.33206 4.56293C2.17973 5.09503 2.11827 5.64907 2.15022 6.20168V9.597V19.4402L2.01115 33.0001Z"
            fill="url(#paint4_linear_389_14529)" />
        <path opacity="0.65"
            d="M43.9995 33.3215L44.0851 46.8814V58.5776V60.12C44.1201 60.6938 44.0586 61.2695 43.9033 61.823C43.7218 62.3801 43.4226 62.8915 43.0261 63.3225C42.6367 63.7569 42.1487 64.0911 41.6033 64.2972C41.4694 64.3578 41.3295 64.4045 41.1861 64.4364C41.0459 64.4763 40.9028 64.505 40.7582 64.5221C40.4733 64.5432 40.1872 64.5432 39.9024 64.5221H36.5112H22.9786H9.43537H6.0549C5.76645 64.5432 5.47684 64.5432 5.18839 64.5221C5.04388 64.5039 4.90088 64.4753 4.76049 64.4364C4.61859 64.4034 4.47916 64.3605 4.34326 64.3079C3.79942 64.0938 3.31246 63.7565 2.92049 63.3225C2.52395 62.8915 2.22475 62.3801 2.04327 61.823C1.88797 61.2695 1.82652 60.6938 1.86143 60.12V58.5776V46.8814L1.947 33.3215L2.02189 46.8814V58.5776V60.12C1.98993 60.6726 2.0514 61.2266 2.20373 61.7587C2.3714 62.2816 2.65273 62.7608 3.02747 63.1618C3.39528 63.5666 3.85348 63.8786 4.36468 64.0723C4.49274 64.1263 4.62515 64.1693 4.76049 64.2008C4.89027 64.2361 5.02261 64.2612 5.1563 64.2758C5.43401 64.2975 5.713 64.2975 5.99072 64.2758H9.43537H22.9786H36.5112H39.9024C40.1765 64.2974 40.4519 64.2974 40.7261 64.2758C40.8598 64.2612 40.9921 64.2361 41.1219 64.2008C41.2572 64.1693 41.3896 64.1263 41.5177 64.0723C42.0289 63.8786 42.4871 63.5666 42.8549 63.1618C43.2296 62.7608 43.511 62.2816 43.6786 61.7587C43.831 61.2266 43.8924 60.6726 43.8605 60.12V58.5776V46.8814L43.9995 33.3215Z"
            fill="url(#paint5_linear_389_14529)" />
    
            




            
        <path style="mix-blend-mode:multiply" d="M44.9302 33.0001H1.06976V38.6983H44.9302V33.0001Z"
            fill="url(#paint6_linear_389_14529)" />
        <path d="M44.9302 32.368H1.06976V33.6212H44.9302V32.368Z" fill="#020202" />
        <path
            d="M3.81907 26.4128H3.49814C2.15698 26.4128 1.06976 27.5014 1.06976 28.8442V36.2775C1.06976 37.6203 2.15698 38.7088 3.49814 38.7088H3.81907C5.16022 38.7088 6.24744 37.6203 6.24744 36.2775V28.8442C6.24744 27.5014 5.16022 26.4128 3.81907 26.4128Z"
            fill="url(#paint7_linear_389_14529)" stroke="black" stroke-width="2.13743"
            stroke-miterlimit="10" />
        <path style="mix-blend-mode:multiply" opacity="0.5"
            d="M3.93674 26.4128H3.38046C2.1043 26.4128 1.06976 27.4486 1.06976 28.7264V29.0263C1.06976 30.304 2.1043 31.3398 3.38046 31.3398H3.93674C5.2129 31.3398 6.24744 30.304 6.24744 29.0263V28.7264C6.24744 27.4486 5.2129 26.4128 3.93674 26.4128Z"
            fill="url(#paint8_linear_389_14529)" />
        <path style="mix-blend-mode:multiply" opacity="0.5"
            d="M4.07581 34.3604H3.24139C2.04203 34.3604 1.06976 35.3314 1.06976 36.5293C1.06976 37.7272 2.04203 38.6982 3.24139 38.6982H4.07581C5.27517 38.6982 6.24744 37.7272 6.24744 36.5293C6.24744 35.3314 5.27517 34.3604 4.07581 34.3604Z"
            fill="url(#paint9_linear_389_14529)" />
        <path
            d="M42.5126 26.8521H42.1916C40.8505 26.8521 39.7632 27.9406 39.7632 29.2834V36.7167C39.7632 38.0595 40.8505 39.1481 42.1916 39.1481H42.5126C43.8537 39.1481 44.9409 38.0595 44.9409 36.7167V29.2834C44.9409 27.9406 43.8537 26.8521 42.5126 26.8521Z"
            fill="url(#paint10_linear_389_14529)" stroke="black" stroke-width="2.13743"
            stroke-miterlimit="10" />
        <path style="mix-blend-mode:multiply" opacity="0.5"
            d="M42.6302 26.8521H42.0739C40.7978 26.8521 39.7632 27.8879 39.7632 29.1656V29.4655C39.7632 30.7432 40.7978 31.779 42.0739 31.779H42.6302C43.9064 31.779 44.9409 30.7432 44.9409 29.4655V29.1656C44.9409 27.8879 43.9064 26.8521 42.6302 26.8521Z"
            fill="url(#paint11_linear_389_14529)" />
        <path style="mix-blend-mode:multiply" opacity="0.5"
            d="M42.7693 34.8102H41.9349C40.7355 34.8102 39.7632 35.7812 39.7632 36.9791C39.7632 38.177 40.7355 39.1481 41.9349 39.1481H42.7693C43.9686 39.1481 44.9409 38.177 44.9409 36.9791C44.9409 35.7812 43.9686 34.8102 42.7693 34.8102Z"
            fill="url(#paint12_linear_389_14529)" />
    </g>
    <defs>
        <linearGradient id="paint0_linear_389_14529" x1="23.0107" y1="64.929" x2="23.0107"
            y2="33.0001" gradientUnits="userSpaceOnUse">
            <stop stop-color="#1B1B1E" />
            <stop offset="0.54" stop-color="#2D2D35" />
            <stop offset="1" stop-color="#131316" />
        </linearGradient>
        <linearGradient id="paint1_linear_389_14529" x1="-4.50238e-06" y1="48.9592" x2="46.0107"
            y2="48.9592" gradientUnits="userSpaceOnUse">
            <stop />
            <stop offset="0.57" stop-color="#2B2B38" />
            <stop offset="1" stop-color="#141415" />
        </linearGradient>
        <linearGradient id="paint2_linear_389_14529" x1="23.0107" y1="33.0001" x2="23.0107"
            y2="1.07117" gradientUnits="userSpaceOnUse">
            <stop stop-color="#1B1B1E" />
            <stop offset="0.54" stop-color="#2D2D35" />
            <stop offset="1" stop-color="#131316" />
        </linearGradient>
        <linearGradient id="paint3_linear_389_14529" x1="-2.08199e-05" y1="17.0303" x2="46.0107"
            y2="17.0303" gradientUnits="userSpaceOnUse">
            <stop />
            <stop offset="0.57" stop-color="#2B2B38" />
            <stop offset="1" stop-color="#141415" />
        </linearGradient>
        <linearGradient id="paint4_linear_389_14529" x1="1.85068" y1="17.3623" x2="44.16"
            y2="17.3623" gradientUnits="userSpaceOnUse">
            <stop stop-color="white" />
            <stop offset="0.57" stop-color="#949494" stop-opacity="0" />
            <stop offset="1" stop-color="white" />
        </linearGradient>
        <linearGradient id="paint5_linear_389_14529" x1="44.16" y1="48.9593" x2="1.85073"
            y2="48.9593" gradientUnits="userSpaceOnUse">
            <stop stop-color="white" />
            <stop offset="0.57" stop-color="#949494" stop-opacity="0" />
            <stop offset="1" stop-color="white" />
        </linearGradient>
        <linearGradient id="paint6_linear_389_14529" x1="23.0535" y1="38.8589" x2="22.9462"
            y2="32.4753" gradientUnits="userSpaceOnUse">
            <stop stop-color="#525252" stop-opacity="0" />
            <stop offset="1" stop-color="#0D0D11" />
        </linearGradient>
        <linearGradient id="paint7_linear_389_14529" x1="3.6586" y1="38.6981" x2="3.6586"
            y2="26.4128" gradientUnits="userSpaceOnUse">
            <stop stop-color="#1B1B1E" />
            <stop offset="0.54" stop-color="#2D2D35" />
            <stop offset="1" stop-color="#131316" />
        </linearGradient>
        <linearGradient id="paint8_linear_389_14529" x1="3.72279" y1="31.3505" x2="3.60482"
            y2="26.852" gradientUnits="userSpaceOnUse">
            <stop stop-color="#525252" stop-opacity="0" />
            <stop offset="1" />
        </linearGradient>
        <linearGradient id="paint9_linear_389_14529" x1="3.59441" y1="34.3496" x2="3.71238"
            y2="38.3126" gradientUnits="userSpaceOnUse">
            <stop stop-color="#525252" stop-opacity="0" />
            <stop offset="1" />
        </linearGradient>
        <linearGradient id="paint10_linear_389_14529" x1="42.3414" y1="39.1481" x2="42.3414"
            y2="26.8521" gradientUnits="userSpaceOnUse">
            <stop stop-color="#1B1B1E" />
            <stop offset="0.54" stop-color="#2D2D35" />
            <stop offset="1" stop-color="#131316" />
        </linearGradient>
        <linearGradient id="paint11_linear_389_14529" x1="42.4163" y1="31.8004" x2="42.2876"
            y2="27.3019" gradientUnits="userSpaceOnUse">
            <stop stop-color="#525252" stop-opacity="0" />
            <stop offset="1" />
        </linearGradient>
        <linearGradient id="paint12_linear_389_14529" x1="42.2879" y1="34.7888" x2="42.3951"
            y2="38.7625" gradientUnits="userSpaceOnUse">
            <stop stop-color="#525252" stop-opacity="0" />
            <stop offset="1" />
        </linearGradient>
        <clipPath id="clip0_389_14529">
            <rect width="46" height="66" fill="white" />
        </clipPath>
    </defs>
</svg>