<svg width="48" height="25" viewBox="0 0 48 25" fill="none" xmlns="http://www.w3.org/2000/svg">
<g clip-path="url(#clip0_501_1075)">
<path d="M31.8801 2.14241C32.4749 2.14241 33.0452 2.38475 33.4657 2.81611C33.8863 3.24748 34.1225 3.83254 34.1225 4.44259V20.6307C34.1254 20.9335 34.0693 21.2339 33.9576 21.5143C33.8459 21.7947 33.6808 22.0494 33.472 22.2636C33.2633 22.4778 33.0149 22.6471 32.7416 22.7616C32.4683 22.8762 32.1754 22.9337 31.8801 22.9308H16.0987C15.8043 22.9308 15.5127 22.8713 15.2406 22.7557C14.9685 22.6401 14.7213 22.4707 14.5131 22.2571C14.3049 22.0435 14.1397 21.79 14.027 21.5109C13.9143 21.2318 13.8563 20.9327 13.8563 20.6307V4.50769C13.8507 4.20096 13.9044 3.89613 14.0144 3.61082C14.1243 3.32551 14.2882 3.06537 14.4967 2.84544C14.7053 2.62551 14.9542 2.45014 15.2292 2.32947C15.5041 2.2088 15.7997 2.14522 16.0987 2.14241H31.8801ZM31.8801 0.536621H16.0987C15.0905 0.542319 14.1252 0.955669 13.4123 1.68695C12.6994 2.41823 12.2964 3.40842 12.2909 4.44259V20.6307C12.2909 21.6666 12.6921 22.6601 13.4062 23.3926C14.1203 24.1251 15.0888 24.5366 16.0987 24.5366H31.8801C32.381 24.5395 32.8774 24.4404 33.3407 24.2452C33.8039 24.0499 34.2248 23.7623 34.5789 23.399C34.9331 23.0357 35.2135 22.604 35.4038 22.1288C35.5942 21.6536 35.6908 21.1444 35.688 20.6307V4.50769C35.688 3.47176 35.2868 2.47826 34.5727 1.74575C33.8586 1.01324 32.89 0.60172 31.8801 0.60172V0.536621Z" fill="#E4E4E7"/>
<path d="M21.4509 8.21826H23.5663L26.4434 16.3557H24.6241L23.9894 14.5763H20.922L20.3085 16.3557H18.5527L21.4509 8.21826ZM23.5663 13.1658L22.5086 10.0844L21.472 13.1658H23.5663Z" fill="#E4E4E7"/>
<path d="M28.8127 8.21826V16.3557H27.0992V8.21826H28.8127Z" fill="#E4E4E7"/>
<path d="M10.5773 5.33214H6.49446C6.36335 5.11173 6.18035 4.92866 5.96225 4.79974C5.74416 4.67082 5.49798 4.60019 5.24634 4.59435C5.03268 4.56838 4.81609 4.58914 4.61083 4.65526C4.40557 4.72137 4.21629 4.83134 4.05546 4.97793C3.89463 5.12451 3.7659 5.30439 3.67774 5.5057C3.58958 5.70701 3.54401 5.92519 3.54401 6.14588C3.54401 6.36657 3.58958 6.58476 3.67774 6.78607C3.7659 6.98738 3.89463 7.16725 4.05546 7.31384C4.21629 7.46042 4.40557 7.57039 4.61083 7.63651C4.81609 7.70262 5.03268 7.72338 5.24634 7.69742C5.50043 7.69134 5.74872 7.61827 5.96732 7.48526C6.18591 7.35224 6.36745 7.16375 6.49446 6.93793H10.5773V5.33214Z" fill="#E4E4E7"/>
<path d="M10.5773 13.5345H9.81577L7.40414 11.0173H2.83472C2.70588 10.7884 2.52101 10.5979 2.2984 10.4647C2.07579 10.3315 1.82315 10.2602 1.56544 10.2578C1.1951 10.3028 0.853726 10.4856 0.606021 10.7716C0.358316 11.0576 0.221497 11.4268 0.221497 11.8093C0.221497 12.1919 0.358316 12.5611 0.606021 12.8471C0.853726 13.1331 1.1951 13.3159 1.56544 13.3609C1.82151 13.3629 2.0736 13.2958 2.29639 13.1663C2.51918 13.0368 2.70484 12.8495 2.83472 12.6231H6.74834L9.18113 15.162H10.5985L10.5773 13.5345Z" fill="#E4E4E7"/>
<path d="M10.5774 18.4824H6.4945C6.36339 18.262 6.18038 18.0789 5.96229 17.95C5.7442 17.8211 5.49802 17.7505 5.24637 17.7446C5.04912 17.7446 4.85381 17.7845 4.67158 17.8619C4.48936 17.9393 4.32378 18.0528 4.18431 18.1959C4.04483 18.339 3.9342 18.5088 3.85872 18.6957C3.78324 18.8826 3.74438 19.083 3.74438 19.2853C3.74438 19.4876 3.78324 19.688 3.85872 19.8749C3.9342 20.0618 4.04483 20.2317 4.18431 20.3747C4.32378 20.5178 4.48936 20.6313 4.67158 20.7087C4.85381 20.7861 5.04912 20.826 5.24637 20.826C5.49885 20.8243 5.74658 20.7554 5.96534 20.626C6.1841 20.4967 6.36643 20.3114 6.4945 20.0882H10.5774V18.4824Z" fill="#E4E4E7"/>
<path d="M42.7536 17.7446C42.4984 17.7468 42.2479 17.8157 42.0258 17.9448C41.8037 18.0739 41.6174 18.2589 41.4843 18.4824H37.4015V20.0882H41.5055C41.6336 20.3114 41.8159 20.4967 42.0347 20.626C42.2534 20.7554 42.5011 20.8243 42.7536 20.826C43.152 20.826 43.534 20.6637 43.8157 20.3747C44.0974 20.0858 44.2556 19.6939 44.2556 19.2853C44.2556 18.8767 44.0974 18.4848 43.8157 18.1959C43.534 17.907 43.152 17.7446 42.7536 17.7446Z" fill="#E4E4E7"/>
<path d="M46.498 12.0807C46.2428 12.0829 45.9923 12.1518 45.7702 12.2809C45.5481 12.4099 45.3618 12.595 45.2288 12.8184H41.2517L38.7977 10.3013H37.3804V11.9071H38.1419L40.5747 14.4242H45.1441C45.281 14.6541 45.4743 14.8432 45.7046 14.9726C45.9349 15.102 46.1943 15.1672 46.4569 15.1616C46.7195 15.1561 46.976 15.0801 47.201 14.9411C47.4259 14.8021 47.6115 14.605 47.739 14.3695C47.8665 14.134 47.9316 13.8683 47.9278 13.599C47.924 13.3296 47.8515 13.066 47.7173 12.8344C47.5832 12.6028 47.3922 12.4113 47.1634 12.2791C46.9346 12.1468 46.676 12.0784 46.4134 12.0807H46.498Z" fill="#E4E4E7"/>
<path d="M42.7536 4.59424C42.4959 4.59659 42.2433 4.66789 42.0207 4.80109C41.7981 4.9343 41.6132 5.12479 41.4843 5.35373H37.4015V6.93782H41.5055C41.6292 7.16653 41.81 7.35739 42.0294 7.49084C42.2487 7.6243 42.4986 7.69556 42.7536 7.69731C43.124 7.65231 43.4653 7.4695 43.713 7.18353C43.9608 6.89756 44.0976 6.52832 44.0976 6.14578C44.0976 5.76323 43.9608 5.39399 43.713 5.10802C43.4653 4.82205 43.124 4.63924 42.7536 4.59424Z" fill="#E4E4E7"/>
</g>
<defs>
<clipPath id="clip0_501_1075">
<rect width="48" height="24" fill="white" transform="translate(0 0.601562)"/>
</clipPath>
</defs>
</svg>
