<svg width="48" height="25" viewBox="0 0 48 25" fill="none" xmlns="http://www.w3.org/2000/svg">
    <g transform="matrix(0.04171200096607209, 0, 0, 0.04171200096607208, 7.687266989544057, -3.9359391569760396)" style="">
        <path d="M483.437,391.172L518.203,316.641L468.75,316.641L433.984,391.172L483.437,391.172ZM329.844,316.641L295.078,391.172L344.531,391.172L379.297,316.641L329.844,316.641ZM448.75,316.641L399.297,316.641L364.531,391.172L413.984,391.172L448.75,316.641ZM233.828,316.641L233.828,391.172L275.078,391.172L309.844,316.641L233.828,316.641ZM577.266,391.172L577.266,316.641L538.203,316.641L503.438,391.172L577.266,391.172Z" style="fill:rgb(230,230,230);fill-rule:nonzero;"/>
      </g>
      <g transform="matrix(0.04171200096607209, 0, 0, 0.04171200096607208, 7.687266989544057, -3.9359391569760396)" style="">
        <path d="M405.547,654.141C342.734,626.953 297.266,582.969 267.109,538.906C250.781,533.438 235.078,527.578 220.078,521.562C226.406,533.438 233.516,545.312 241.406,556.719C269.297,597.266 319.297,652.5 399.063,685.234C401.172,686.094 403.359,686.563 405.547,686.563C407.734,686.563 409.922,686.172 412.031,685.313C470.078,661.406 512.344,625.703 541.797,592.344C528.75,591.719 515.313,590.703 501.641,589.375C475.781,614.688 443.906,637.578 405.547,654.141ZM696.328,432.188C690.547,427.031 683.906,421.797 676.406,416.641C661.172,405.938 642.656,395.234 621.484,384.922L621.484,223.047C621.484,213.516 613.828,205.781 604.453,205.781C554.063,205.547 508.906,192.031 470.156,165.625C440.078,145.156 423.906,123.516 419.609,117.344C416.406,112.734 411.172,109.922 405.547,109.922C400,109.922 394.688,112.656 391.484,117.266C387.188,123.438 370.938,145.078 340.859,165.547C302.031,191.953 256.797,205.469 206.484,205.703C197.109,205.781 189.453,213.516 189.453,222.969L189.453,295.313C179.766,295.938 170.625,296.797 162.031,297.969C142.734,300.547 126.328,304.453 112.969,309.609C90.313,318.438 77.109,330.781 73.672,346.328C70.391,361.172 76.484,377.109 91.641,393.828L91.719,393.906C92.031,394.219 92.266,394.531 92.578,394.844C106.719,410 128.125,425.469 156.25,440.859C158.125,441.875 160.078,442.969 162.031,443.984C172.5,449.531 183.75,455 195.547,460.234C198.984,473.203 203.828,486.719 209.844,500.391C223.75,506.406 238.438,512.187 253.828,517.734C245.547,503.359 238.828,489.219 233.672,475.937C276.875,492.422 325.781,506.953 377.266,518.359C435.078,531.172 491.641,538.984 542.188,541.406C534.297,552.734 525.469,563.984 515.547,574.922C528.906,576.016 541.953,576.797 554.531,577.187C560.156,570.078 565.156,563.203 569.609,556.719C572.891,551.953 576.016,547.109 579.063,542.187C589.922,542.109 600.313,541.797 610.391,541.094C636.563,539.375 658.75,535.703 676.484,530.156C680.391,528.906 684.063,527.656 687.5,526.25C694.297,523.516 700.234,520.391 705.234,517.031C702.656,512.656 699.375,508.437 695.781,504.453C690.625,507.891 684.141,510.937 676.484,513.594C659.531,519.531 636.719,523.672 609.375,525.469C602.578,525.938 595.547,526.25 588.281,526.406C609.219,488.281 621.563,448.984 621.563,418.516L621.563,402.344C643.438,413.438 662.031,424.844 676.484,436.016C679.922,438.672 683.047,441.25 686.016,443.906C698.75,455.234 713.203,471.875 709.922,486.875C709.375,489.219 708.438,491.406 707.109,493.594C711.094,497.891 714.453,502.188 717.109,506.406C721.172,501.484 723.828,496.094 725.156,490.234C729.063,472.266 719.375,452.734 696.328,432.188ZM163.75,427.031C163.203,426.719 162.578,426.406 162.031,426.094C135.547,411.484 115.469,396.641 103.047,382.891C102.969,382.891 102.969,382.969 102.891,382.969C97.969,377.969 94.766,372.5 93.594,370.391C89.219,362.813 87.5,355.859 88.906,349.609C92.656,332.5 119.375,319.687 162.031,313.672C170.547,312.5 179.687,311.562 189.453,310.937L189.453,418.594C189.453,425.625 190.156,433.203 191.406,441.094C181.719,436.484 172.422,431.797 163.75,427.031ZM590.312,418.594C590.312,443.359 578.203,484.141 552.188,526.172C500.313,524.375 441.25,516.484 380.703,503.047C325,490.703 272.422,474.766 227.109,456.563C222.812,441.875 220.703,428.828 220.703,418.594L220.703,236.641C271.875,234.062 318.125,218.906 358.516,191.406C380.156,176.719 395.703,161.172 405.625,149.844C415.469,161.172 431.016,176.641 452.578,191.406C492.891,218.906 539.141,234.062 590.312,236.641L590.312,418.594Z" style="fill:rgb(230,230,230);fill-rule:nonzero;"/>
      </g>
      <g transform="matrix(0.04171200096607209, 0, 0, 0.04171200096607208, 7.687266989544057, -3.9359391569760396)" style="">
        <path d="M189.219,346.25C157.891,348.203 132.188,353.047 112.969,360.547C105.469,363.438 98.984,366.797 93.594,370.469C95.938,374.531 99.141,378.672 103.047,383.047C119.609,372.109 149.531,364.688 189.219,362.031L189.219,346.25Z" style="fill:rgb(230,230,230);fill-rule:nonzero;"/>
      </g>
      <g transform="matrix(0.04171200096607209, 0, 0, 0.04171200096607208, 7.687266989544057, -3.9359391569760396)" style="">
        <path d="M93.516,370.391C94.688,372.5 97.969,377.969 102.813,382.969C102.891,382.969 102.891,382.891 102.969,382.891C99.141,378.594 95.937,374.453 93.516,370.391C93.594,370.391 93.594,370.391 93.516,370.391ZM717.031,506.406C714.297,502.188 710.938,497.891 707.031,493.594C703.828,490.156 700.313,486.641 696.328,483.125C678.516,467.266 652.5,450.938 620.547,435.391C620.234,437.5 618.828,446.875 617.891,451.563C646.641,465.859 669.922,480.625 685.938,494.844C689.219,497.734 692.578,501.016 695.703,504.453C699.297,508.359 702.578,512.656 705.156,517.031C709.141,523.828 711.328,531.016 709.844,537.813C705.313,558.203 667.734,572.656 609.375,576.484C592.344,577.578 573.906,577.813 554.531,577.188C541.953,576.797 528.906,576.016 515.547,574.922C473.203,571.406 427.422,564.375 380.703,553.984C335.625,543.984 292.656,531.641 253.906,517.656C238.516,512.109 223.828,506.328 209.922,500.313C193.359,493.125 177.891,485.625 163.828,477.969C112.5,449.922 84.531,420.938 88.984,400.547C89.531,398.203 90.469,395.938 91.797,393.828L91.719,393.75C91.016,393.047 86.562,388.516 81.719,381.016C77.656,385.938 75,391.328 73.672,397.188C70.312,412.344 76.719,428.672 92.656,445.703C106.797,460.859 128.203,476.328 156.328,491.719C175.391,502.109 196.875,512.188 220.234,521.563C235.156,527.578 250.859,533.359 267.266,538.906C301.641,550.469 338.75,560.781 377.344,569.297C420.156,578.75 462.266,585.547 501.719,589.375C515.469,590.703 528.906,591.719 541.875,592.344C553.359,592.891 564.453,593.203 575.234,593.203C587.422,593.203 599.219,592.813 610.391,592.109C642.344,590 668.281,585 687.5,577.266C709.141,568.516 721.797,556.406 725.156,541.25C727.578,530.156 724.844,518.516 717.031,506.406Z" style="fill:rgb(230,230,230);fill-rule:nonzero;"/>
      </g>
      <g transform="matrix(0.04171200096607209, 0, 0, 0.04171200096607208, 7.687266989544057, -3.9359391569760396)" style="">
        <path d="M91.719,393.828C91.719,393.828 91.641,393.828 91.641,393.75C91.641,393.75 91.719,393.75 91.719,393.828Z" style="fill:rgb(6,243,255);fill-rule:nonzero;"/>
      </g>
</svg>
    