<svg width="48" height="25" viewBox="0 0 48 25" fill="none" xmlns="http://www.w3.org/2000/svg">
<g clip-path="url(#clip0_501_1105)">
<path d="M45.5174 1.58365C45.7167 1.58096 45.9144 1.61825 46.0991 1.69334C46.2837 1.76843 46.4514 1.87979 46.5923 2.02084C46.7332 2.16189 46.8444 2.32977 46.9194 2.51457C46.9944 2.69937 47.0317 2.89735 47.029 3.0968V22.1365C47.029 22.3342 46.9898 22.5301 46.9136 22.7125C46.8374 22.895 46.7257 23.0605 46.5851 23.1994C46.4445 23.3383 46.2777 23.4479 46.0944 23.5217C45.9111 23.5956 45.715 23.6322 45.5174 23.6296H2.4726C2.27417 23.6296 2.07773 23.59 1.89478 23.5131C1.71183 23.4362 1.54605 23.3235 1.40715 23.1817C1.26824 23.0398 1.15901 22.8717 1.08584 22.687C1.01268 22.5024 0.977048 22.305 0.981043 22.1064V3.06674C0.982346 2.86981 1.02255 2.67508 1.09935 2.49377C1.17615 2.31246 1.28801 2.14815 1.42851 2.0103C1.56901 1.87245 1.73536 1.76378 1.91799 1.69056C2.10061 1.61734 2.29591 1.581 2.49262 1.58365H45.5375M45.5375 0.581563H2.49262C2.16229 0.580238 1.83496 0.644392 1.52952 0.770325C1.22407 0.896258 0.946559 1.08148 0.712977 1.3153C0.479395 1.54913 0.294367 1.82694 0.168565 2.1327C0.0427636 2.43846 -0.0213234 2.76613 -0.0199994 3.0968V22.1365C-0.02001 22.4658 0.0451203 22.7919 0.171635 23.096C0.29815 23.4 0.483546 23.676 0.717129 23.908C0.950713 24.1399 1.22786 24.3233 1.53259 24.4475C1.83732 24.5717 2.1636 24.6343 2.49262 24.6317H45.5375C45.8673 24.6317 46.1939 24.5662 46.4983 24.4389C46.8027 24.3116 47.0788 24.1251 47.3107 23.8902C47.5425 23.6554 47.7255 23.3767 47.849 23.0705C47.9725 22.7643 48.034 22.4366 48.0301 22.1064V3.06674C48.0248 2.40406 47.7574 1.77047 47.2865 1.30469C46.8155 0.838908 46.1794 0.578891 45.5174 0.581563H45.5375Z" fill="#E4E4E7"/>
<path d="M29.1904 3.91859V15.8134H3.40351V3.91859H29.1904ZM29.2504 2.9165H3.34345C3.09388 2.9165 2.85454 3.01575 2.67807 3.1924C2.5016 3.36905 2.40247 3.60864 2.40247 3.85847V15.8835C2.40247 16.1333 2.5016 16.3729 2.67807 16.5496C2.85454 16.7262 3.09388 16.8255 3.34345 16.8255H29.2504C29.5 16.8255 29.7393 16.7262 29.9158 16.5496C30.0923 16.3729 30.1914 16.1333 30.1914 15.8835V3.85847C30.1914 3.60864 30.0923 3.36905 29.9158 3.1924C29.7393 3.01575 29.5 2.9165 29.2504 2.9165Z" fill="#E4E4E7"/>
<path d="M44.6064 3.91859V7.92694H32.7841V3.91859H44.6064ZM44.6665 2.9165H32.7241C32.6005 2.9165 32.4781 2.94087 32.364 2.98821C32.2498 3.03554 32.1461 3.10493 32.0587 3.1924C31.9713 3.27987 31.902 3.38371 31.8547 3.49799C31.8074 3.61228 31.7831 3.73477 31.7831 3.85847V8.00711C31.7857 8.25519 31.886 8.49222 32.0622 8.66671C32.2384 8.8412 32.4762 8.93907 32.7241 8.93905H44.6665C44.9143 8.93907 45.1522 8.8412 45.3284 8.66671C45.5045 8.49222 45.6048 8.25519 45.6075 8.00711V3.85847C45.6075 3.60864 45.5083 3.36905 45.3319 3.1924C45.1554 3.01575 44.9161 2.9165 44.6665 2.9165Z" fill="#E4E4E7"/>
<path d="M44.6064 10.6022V14.6105H32.7841V10.6022H44.6064ZM44.6665 9.6001H32.7241C32.6005 9.6001 32.4781 9.62446 32.364 9.6718C32.2498 9.71914 32.1461 9.78852 32.0587 9.87599C31.9713 9.96346 31.902 10.0673 31.8547 10.1816C31.8074 10.2959 31.7831 10.4184 31.7831 10.5421V14.6807C31.7831 14.8044 31.8074 14.9269 31.8547 15.0412C31.902 15.1554 31.9713 15.2593 32.0587 15.3468C32.1461 15.4342 32.2498 15.5036 32.364 15.5509C32.4781 15.5983 32.6005 15.6226 32.7241 15.6226H44.6665C44.9161 15.6226 45.1554 15.5234 45.3319 15.3468C45.5083 15.1701 45.6075 14.9305 45.6075 14.6807V10.532C45.6048 10.284 45.5045 10.0469 45.3284 9.87244C45.1522 9.69795 44.9143 9.60008 44.6665 9.6001Z" fill="#E4E4E7"/>
<path d="M44.6064 17.2662V21.2746H32.7841V17.2662H44.6064ZM44.6665 16.2642H32.7241C32.4762 16.2641 32.2384 16.362 32.0622 16.5365C31.886 16.711 31.7857 16.948 31.7831 17.1961V21.3447C31.7831 21.4684 31.8074 21.5909 31.8547 21.7052C31.902 21.8195 31.9713 21.9233 32.0587 22.0108C32.1461 22.0983 32.2498 22.1677 32.364 22.215C32.4781 22.2623 32.6005 22.2867 32.7241 22.2867H44.6665C44.9161 22.2867 45.1554 22.1875 45.3319 22.0108C45.5083 21.8342 45.6075 21.5946 45.6075 21.3447V17.1961C45.6048 16.948 45.5045 16.711 45.3284 16.5365C45.1522 16.362 44.9143 16.2641 44.6665 16.2642Z" fill="#E4E4E7"/>
<path d="M29.6409 17.6974H2.98315C2.84864 17.7155 2.72525 17.7819 2.63591 17.8841C2.54656 17.9864 2.49731 18.1177 2.49731 18.2536C2.49731 18.3894 2.54656 18.5207 2.63591 18.623C2.72525 18.7252 2.84864 18.7916 2.98315 18.8097H29.6409C29.7201 18.8204 29.8007 18.814 29.8773 18.7909C29.9538 18.7678 30.0245 18.7287 30.0847 18.676C30.1449 18.6233 30.1931 18.5584 30.2261 18.4855C30.2592 18.4127 30.2763 18.3336 30.2763 18.2536C30.2763 18.1735 30.2592 18.0944 30.2261 18.0216C30.1931 17.9487 30.1449 17.8838 30.0847 17.8311C30.0245 17.7784 29.9538 17.7393 29.8773 17.7162C29.8007 17.6931 29.7201 17.6867 29.6409 17.6974Z" fill="#E4E4E7"/>
<path d="M29.6408 19.441H2.98307C2.83705 19.441 2.69701 19.4991 2.59375 19.6024C2.4905 19.7058 2.4325 19.846 2.4325 19.9922C2.43247 20.1393 2.49016 20.2805 2.59313 20.3855C2.69611 20.4904 2.83613 20.5507 2.98307 20.5533H29.6408C29.7895 20.5533 29.9321 20.4942 30.0372 20.389C30.1424 20.2837 30.2014 20.141 30.2014 19.9922C30.2014 19.9189 30.1869 19.8464 30.1586 19.7789C30.1303 19.7114 30.0888 19.6502 30.0366 19.5989C29.9844 19.5475 29.9226 19.5072 29.8546 19.4801C29.7866 19.453 29.714 19.4397 29.6408 19.441Z" fill="#E4E4E7"/>
<path d="M29.6409 21.1744H2.98315C2.84864 21.1926 2.72525 21.2589 2.63591 21.3612C2.54656 21.4635 2.49731 21.5947 2.49731 21.7306C2.49731 21.8665 2.54656 21.9977 2.63591 22.1C2.72525 22.2023 2.84864 22.2686 2.98315 22.2868H29.6409C29.7201 22.2974 29.8007 22.291 29.8773 22.268C29.9538 22.2449 30.0245 22.2057 30.0847 22.153C30.1449 22.1004 30.1931 22.0354 30.2261 21.9626C30.2592 21.8897 30.2763 21.8106 30.2763 21.7306C30.2763 21.6506 30.2592 21.5715 30.2261 21.4986C30.1931 21.4258 30.1449 21.3608 30.0847 21.3082C30.0245 21.2555 29.9538 21.2163 29.8773 21.1933C29.8007 21.1702 29.7201 21.1638 29.6409 21.1744Z" fill="#E4E4E7"/>
<path d="M18.4792 10.3821L14.7353 12.6067C14.6432 12.6588 14.5392 12.6861 14.4334 12.6858C14.3276 12.6855 14.2238 12.6578 14.1319 12.6053C14.0401 12.5527 13.9635 12.4772 13.9095 12.3861C13.8556 12.295 13.8263 12.1915 13.8243 12.0856V7.59627C13.8263 7.49041 13.8556 7.38686 13.9095 7.29577C13.9635 7.20467 14.0401 7.12916 14.1319 7.07663C14.2238 7.0241 14.3276 6.99635 14.4334 6.9961C14.5392 6.99584 14.6432 7.02309 14.7353 7.07518L18.4792 9.30984C18.5781 9.3601 18.6612 9.4368 18.7192 9.53143C18.7772 9.62606 18.8079 9.73492 18.8079 9.84596C18.8079 9.95699 18.7772 10.0659 18.7192 10.1605C18.6612 10.2551 18.5781 10.3318 18.4792 10.3821Z" fill="#E4E4E7"/>
</g>
<defs>
<clipPath id="clip0_501_1105">
<rect width="48" height="24" fill="white" transform="translate(0 0.601562)"/>
</clipPath>
</defs>
</svg>
