<svg width="48" height="25" viewBox="0 0 48 25" fill="none" xmlns="http://www.w3.org/2000/svg">
<g clip-path="url(#clip0_501_1087)">
<path d="M48 11.2954C48.0174 11.056 48.0174 10.8156 48 10.5762C47.9102 10.0645 47.678 9.58945 47.3308 9.20714C46.9836 8.82484 46.5359 8.55119 46.0404 8.41846C46.0404 9.57303 46.0404 10.7087 46.1337 11.8633C46.1337 13.756 46.1337 15.7434 46.1337 17.6929C46.1806 18.1586 46.1806 18.6279 46.1337 19.0935C45.9515 20.123 45.4782 21.0765 44.7714 21.838H45.6298C46.3504 21.7438 47.0096 21.378 47.4763 20.8134C47.9431 20.2488 48.1834 19.5267 48.1493 18.7907L48 11.2954Z" fill="#E4E4E7"/>
<path d="M1.9409 17.6929C1.9409 15.8002 1.9409 13.7939 1.9409 11.8633C1.9409 10.7087 1.9409 9.57303 1.9409 8.41846C1.44327 8.5469 0.993146 8.81921 0.645265 9.20227C0.297383 9.58534 0.0667255 10.0627 -0.018664 10.5762C-0.0360964 10.8156 -0.0360964 11.056 -0.018664 11.2954V18.7718C-0.0527563 19.5078 0.187471 20.2298 0.654266 20.7944C1.12106 21.359 1.78024 21.7248 2.50078 21.8191H3.35925C2.6524 21.0576 2.17907 20.104 1.99689 19.0746C1.93258 18.6171 1.91383 18.1542 1.9409 17.6929Z" fill="#E4E4E7"/>
<path d="M25.5863 0.620605C24.3359 0.620605 23.1042 0.620605 21.8538 0.620605C21.2985 0.639519 20.7625 0.831311 20.3184 1.16993C19.8743 1.50856 19.5438 1.9776 19.3717 2.51335H28.0684C27.8987 1.97614 27.5688 1.50557 27.1242 1.16656C26.6797 0.827549 26.1423 0.636793 25.5863 0.620605Z" fill="#E4E4E7"/>
<path d="M42.8865 5.6554C42.3697 5.12417 41.7491 4.70832 41.0646 4.43453C40.38 4.16073 39.6466 4.03504 38.9114 4.0655C36.0374 4.0655 31.7263 4.0655 27.9005 4.0655H8.60347C7.93087 4.05514 7.26313 4.1825 6.64018 4.43994C6.01724 4.69738 5.4519 5.07962 4.97799 5.56379C4.50408 6.04796 4.13134 6.62411 3.88207 7.25777C3.63281 7.89142 3.51213 8.56957 3.52727 9.25162C3.52727 11.9519 3.52727 14.6586 3.52727 17.3715C3.52477 18.3174 3.70726 19.2545 4.06417 20.1284C4.42108 21.0024 4.94533 21.7959 5.60658 22.463C6.26784 23.1301 7.05297 23.6576 7.91655 24.015C8.78013 24.3724 9.70501 24.5525 10.6377 24.545H17.9161C18.8487 24.5525 19.7736 24.3724 20.6372 24.015C21.5008 23.6576 22.2859 23.1301 22.9472 22.463C23.6084 21.7959 24.1327 21.0024 24.4896 20.1284C24.8465 19.2545 25.029 18.3174 25.0265 17.3715C25.0265 14.6586 25.0265 11.9519 25.0265 9.25162C25.047 8.47041 24.8892 7.69497 24.5654 6.9858C24.2417 6.27662 23.7608 5.6529 23.1602 5.16329H27.9752C31.801 5.16329 36.112 5.16329 39.0234 5.16329C39.6054 5.14151 40.1856 5.24115 40.7282 5.45602C41.2707 5.6709 41.7639 5.99645 42.1773 6.4125C42.5966 6.83959 42.9267 7.34798 43.148 7.90732C43.3692 8.46666 43.4771 9.06548 43.4651 9.66802C43.4651 11.2958 43.4651 12.9235 43.4651 14.5513V16.9172C43.491 17.7545 43.3474 18.5883 43.0434 19.3672C42.7393 20.1461 42.2811 20.8535 41.697 21.4459C41.113 22.0382 40.4154 22.5029 39.6475 22.8113C38.8795 23.1197 38.0574 23.2653 37.2318 23.239H29.2256C28.1199 23.2372 27.05 22.842 26.2022 22.1223C26.1007 22.0194 25.9631 21.9616 25.8196 21.9616C25.6762 21.9616 25.5386 22.0194 25.4371 22.1223C25.3845 22.1719 25.3426 22.2319 25.3139 22.2987C25.2852 22.3654 25.2705 22.4375 25.2705 22.5103C25.2705 22.5831 25.2852 22.6551 25.3139 22.7219C25.3426 22.7887 25.3845 22.8487 25.4371 22.8983C26.4833 23.7835 27.8072 24.2601 29.1696 24.2422H37.1198C38.0876 24.2654 39.0501 24.0895 39.9491 23.7251C40.848 23.3607 41.6649 22.8153 42.3503 22.1219C43.0358 21.4286 43.5756 20.6015 43.9371 19.6907C44.2987 18.7799 44.4746 17.8042 44.4542 16.8226C44.4542 16.0276 44.4542 15.2516 44.4542 14.4567C44.4542 12.8478 44.4542 11.2201 44.4542 9.61124C44.4581 8.13617 43.8959 6.71745 42.8865 5.6554Z" fill="#E4E4E7"/>
<path d="M29.7259 14.0316L27.5459 10.6016H29.3659L30.7459 12.8016L32.1559 10.6016H33.7959L31.6159 14.0316L33.9059 17.6016H32.0759L30.5859 15.2516L29.0659 17.6016H27.4359L29.7259 14.0316ZM37.5035 10.6016C38.0035 10.6016 38.4535 10.7016 38.8435 10.8916C39.2335 11.0816 39.5335 11.3516 39.7535 11.7016C39.9635 12.0616 40.0735 12.4716 40.0735 12.9316C40.0735 13.3816 39.9635 13.7816 39.7535 14.1216C39.5335 14.4616 39.2435 14.7216 38.8735 14.9016L40.2535 17.6016H38.5935L37.4235 15.2516H36.1535V17.6016H34.6535V10.6016H37.5035ZM36.1535 14.0016H37.3835C37.7335 14.0016 38.0135 13.9116 38.2235 13.7116C38.4335 13.5216 38.5435 13.2616 38.5435 12.9316C38.5435 12.6016 38.4335 12.3416 38.2235 12.1416C38.0135 11.9516 37.7335 11.8516 37.3835 11.8516H36.1535V14.0016Z" fill="#E4E4E7"/>
</g>
<defs>
<clipPath id="clip0_501_1087">
<rect width="48" height="24" fill="white" transform="translate(0 0.601562)"/>
</clipPath>
</defs>
</svg>
