<svg width="68" height="70" viewBox="0 0 68 70" fill="none" xmlns="http://www.w3.org/2000/svg">
<path d="M60.3005 26.3696L60.2584 26.3276C60.255 26.3252 60.2523 26.3221 60.2506 26.3185L33.9426 0.00976562L7.6348 26.3178C7.63178 26.3208 7.63008 26.3249 7.62702 26.3269L7.58361 26.369C3.56079 30.4144 1.0056 35.6884 0.324249 41.3528C-0.357104 47.0172 0.87448 52.7468 3.82321 57.6309C6.77195 62.515 11.2686 66.2734 16.5984 68.3081C21.9281 70.3429 27.7852 70.5379 33.2383 68.8615C33.6972 68.7212 34.1877 68.7212 34.6466 68.8615C40.0993 70.5372 45.956 70.3422 51.2854 68.3071C56.6149 66.272 61.111 62.514 64.0596 57.6302C67.0081 52.7464 68.2398 47.0172 67.5588 41.3531C66.8777 35.6891 64.3228 30.4151 60.3005 26.3696ZM16.9895 43.7181C16.8614 43.8461 16.7599 43.9983 16.6906 44.1655C16.6213 44.3326 16.5856 44.5119 16.5857 44.693C16.6325 49.3363 17.9447 53.8786 20.3811 57.8316C20.4365 57.9213 20.4621 58.0263 20.4542 58.1313C20.4464 58.2362 20.4055 58.3361 20.3374 58.4166C20.2694 58.4971 20.1776 58.5538 20.0753 58.579C19.973 58.6041 19.8653 58.5963 19.7678 58.5566C17.9362 57.7861 16.2722 56.6662 14.869 55.2595C11.9934 52.3833 10.3767 48.4833 10.3741 44.4161C10.3715 40.349 11.9831 36.4469 14.8551 33.5673L33.9426 14.4816L53.0291 33.5673C55.9015 36.4466 57.5137 40.3487 57.511 44.4161C57.5086 48.4833 55.8917 52.3833 53.0158 55.2595C51.6126 56.6662 49.9487 57.7861 48.1175 58.5566C48.0196 58.5963 47.9119 58.6041 47.8097 58.579C47.7074 58.5538 47.6157 58.4968 47.5474 58.4166C47.4795 58.3361 47.4384 58.2362 47.4306 58.1309C47.4228 58.026 47.4483 57.921 47.5036 57.8313C49.9406 53.8786 51.2535 49.3363 51.3011 44.693C51.3011 44.5119 51.265 44.3326 51.1954 44.1651C51.1258 43.9976 51.0239 43.8458 50.8955 43.7177L41.8674 34.1418C41.7774 34.0667 41.6643 34.0256 41.5471 34.0256C41.4303 34.0256 41.3168 34.0667 41.2271 34.1418C41.1371 34.2165 41.0766 34.3208 41.0556 34.436C41.0345 34.5511 41.0546 34.6697 41.1123 34.7716C44.6186 41.1167 41.6035 50.2307 36.5754 55.2595L36.5489 55.286C35.8549 55.9725 34.918 56.3574 33.9419 56.357C32.9656 56.3567 32.029 55.9711 31.3355 55.2843L31.3111 55.2595C26.2811 50.2307 23.2676 41.1177 26.7745 34.7729C26.8321 34.671 26.8522 34.5525 26.8312 34.4373C26.8103 34.3222 26.7496 34.2179 26.6597 34.1431C26.5699 34.0681 26.4566 34.027 26.3396 34.027C26.2225 34.027 26.1092 34.0681 26.0194 34.1431L16.9895 43.7181Z" fill="white"/>
</svg>
